<svg xmlns="http://www.w3.org/2000/svg" viewBox="0 0 202.37 202.37"><defs><style>.cls-1,.cls-2,.cls-4{fill:none;}.cls-1{stroke:#fff;stroke-miterlimit:10;}.cls-1,.cls-2{stroke-width:3px;}.cls-2{stroke:#000;stroke-linecap:round;stroke-linejoin:round;}.cls-3{fill:#fff;}</style></defs><g id="Capa_2" data-name="Capa 2"><g id="Capa_1-2" data-name="Capa 1"><polygon class="cls-1" points="97.81 78.27 143.29 105.67 99.31 135.42 98.56 106.84 98.35 98.76 97.81 78.27"/><path class="cls-2" d="M162.89,97.42a50.52,50.52,0,1,0-40.2,59.06A50.51,50.51,0,0,0,162.89,97.42Z"/><path class="cls-3" d="M46.07,72.91q-2,.14-4.69-2.25t-2.8-4.26c-.06-.93.92-3.18,3-6.76q3.8-8.23,14.1-12.71c1.11-.49,2.53-1.06,4.25-1.7l.47,0L60.5,45,61,45a3.72,3.72,0,0,1,2.23.62c2.45.77,4.06,1.82,4.83,3.17a20.86,20.86,0,0,1,1.82,7,3.74,3.74,0,0,0,.13.77c.07.31.11.52.12.62a2.66,2.66,0,0,1,0,.63,1.9,1.9,0,0,0,0,.47,67,67,0,0,1-.28,9.39c0,1-.16,2.85-.39,5.41a39.73,39.73,0,0,0-.18,6.34q1.11,15.85,1.29,31.77l.13,10.61c0,1.15,0,2.86,0,5.15s0,4,0,5.16l-.25,5.33a24.49,24.49,0,0,0,.07,3.19,25.71,25.71,0,0,1,.07,3.28,13.33,13.33,0,0,1-.44,2.53,4.25,4.25,0,0,1-1.41,2.2,2.34,2.34,0,0,1-1.66.9l-1.08.08a2.34,2.34,0,0,1-1-.09l-.31,0c-1,.07-2.52-1.07-4.45-3.44q-3-4.31-3.69-14.57l-.62-8.86c-.07-1-.09-2.7,0-5q-.18-7-.23-18.81t-.23-18.8Q55,68.54,55,67.12a5.81,5.81,0,0,1,.08-1.1c-.3.23-.82.66-1.55,1.28s-1.4,1.22-2,1.78Q48.39,72.74,46.07,72.91Z"/><rect class="cls-4" width="202.37" height="202.37"/></g></g></svg>