<svg xmlns="http://www.w3.org/2000/svg" viewBox="0 0 202.37 202.37"><defs><style>.cls-1,.cls-2,.cls-4{fill:none;}.cls-1{stroke:#000;}.cls-1,.cls-2{stroke-linecap:round;stroke-linejoin:round;stroke-width:3px;}.cls-2{stroke:#fff;}.cls-3{fill:#fff;}</style></defs><g id="Capa_2" data-name="Capa 2"><g id="Capa_1-2" data-name="Capa 1"><path class="cls-1" d="M140.25,50.89l28.25,83.64a8.64,8.64,0,0,1-5.09,11l-45.74,15.79a8.6,8.6,0,0,1-10.8-5.54L76.61,68.15a8.62,8.62,0,0,1,5.09-11l45.74-15.79c3.43-1.18,9.27-1.87,11.44,5.14Z"/><line class="cls-1" x1="132.13" y1="144.17" x2="142.14" y2="140.71"/><line class="cls-1" x1="104.04" y1="141.48" x2="162.59" y2="121.27"/><line class="cls-1" x1="80.24" y1="72.54" x2="138.79" y2="52.33"/><rect class="cls-2" x="97.34" y="72.11" width="47.41" height="47.4" transform="translate(-24.64 44.74) rotate(-19.05)"/><path class="cls-3" d="M51.89,137.9l2.49-.17A65.42,65.42,0,0,0,61,137c2-.35,4.31-.82,6.93-1.42s4.63-1.06,6.07-1.37a14,14,0,0,0,1.46-.33,11.83,11.83,0,0,1,2.08-.38,8.87,8.87,0,0,1,2.66.12c1.48.31,3,1.56,4.72,3.73a11.52,11.52,0,0,1,2.68,5.9c.13,1.87-.86,3.81-3,5.83s-3.91,3.19-5.45,3.51A150.65,150.65,0,0,1,61.53,155L59,155.2A125.4,125.4,0,0,0,44,157a2.13,2.13,0,0,1-.94-.09l-.31,0a5.12,5.12,0,0,1-3.84-1.29,6.43,6.43,0,0,1-2.13-3.6,79.71,79.71,0,0,1-1.37-8.49,7.36,7.36,0,0,1,.16-2,12.65,12.65,0,0,0,.09-3.29q-.66-9.31,8-21.72T61.61,98.49q8.85-5.31,10.81-10.6a21.41,21.41,0,0,0,1.34-7.59q-.58-8.39-9.76-7.75-4.81.35-14.17,3.81T38.76,80q-3.42.24-4.32-3.6c-.66-3.49-1-5.5-1-6q-.26-3.59,3.93-6.22a7.65,7.65,0,0,1,2.57-1.27,148.64,148.64,0,0,1,15.8-1.74A85.73,85.73,0,0,1,68.35,61a20.49,20.49,0,0,1,9.92,3.44,15.74,15.74,0,0,1,6.3,7.44,23.11,23.11,0,0,1,.94,4.46,26.67,26.67,0,0,1,.57,3.71q.67,9.48-2.33,14.61t-10,10.3Q50.76,121.74,51.89,137.9Z"/><rect class="cls-4" width="202.37" height="202.37"/></g></g></svg>