<svg xmlns="http://www.w3.org/2000/svg" viewBox="0 0 202.37 202.37"><defs><style>.cls-1,.cls-2,.cls-4{fill:none;}.cls-1{stroke:#000;stroke-linecap:round;stroke-linejoin:round;}.cls-1,.cls-2{stroke-width:3px;}.cls-2{stroke:#fff;stroke-miterlimit:10;}.cls-3{fill:#fff;}</style></defs><g id="Capa_2" data-name="Capa 2"><g id="Capa_1-2" data-name="Capa 1"><polygon class="cls-1" points="133.03 129.86 107.15 153.1 103.84 118.47 73.74 101.03 105.65 87.19 112.94 53.18 135.96 79.24 170.56 75.66 152.88 105.62 166.98 137.42 133.03 129.86"/><polygon class="cls-2" points="130.54 120.38 113.49 135.69 111.31 112.87 91.47 101.38 112.5 92.26 117.3 69.84 132.48 87.02 155.28 84.66 143.63 104.4 152.92 125.36 130.54 120.38"/><path class="cls-3" d="M43.53,65.91a10,10,0,0,1-6-1.45,5.91,5.91,0,0,1-3.12-4.31V60a.39.39,0,0,1-.17-.3,7.75,7.75,0,0,1,2-5.84,9.09,9.09,0,0,1,5.49-3.12l9.86-1.79q14.3-1,24.53,4.53a10.17,10.17,0,0,1,2.73,2.15c1.17,1.16,1.92,1.89,2.26,2.18s1.34,1.26,3,2.91a17.78,17.78,0,0,1,5,11.52l0,.31Q89.66,80,84.35,89c-.67.88-1.62,2-2.88,3.48A37.4,37.4,0,0,1,90.55,106a36.06,36.06,0,0,1,2,8.76l.15,2.18a35.41,35.41,0,0,1-1.86,9,66.37,66.37,0,0,1-3.14,8.65,60.22,60.22,0,0,1-9.31,11.9q-7.05,6.43-15.28,7a38.67,38.67,0,0,1-4,0,38.47,38.47,0,0,0-4,0,38.77,38.77,0,0,1-5.65-.39,68.63,68.63,0,0,1-10.75-1.89,12.61,12.61,0,0,1-4.21-2,8.4,8.4,0,0,1-2.72-5.43A8.55,8.55,0,0,1,34.48,137a10,10,0,0,1,6.64-3.28c1.24-.08,3.26.5,6.06,1.76a27.5,27.5,0,0,0,6.09,2.23,1,1,0,0,1,.55.12.87.87,0,0,0,.4.13,19.81,19.81,0,0,0,3,.57l3.11-.22c.51-.14,1.45-.36,2.84-.67a27.2,27.2,0,0,0,3.14-.85l1.48-1.19q4.67-4.71,5.79-8.69,2.55-10.32,2.12-16.54l0-.47c-.21-3-.56-5-1-5.86a13.24,13.24,0,0,0-4.58-5.14.64.64,0,0,0-.48-.13c-.21,0-.31,0-.32-.13a36.81,36.81,0,0,0-11.5-1.38l-.31,0c-4.77.34-7.23-.74-7.41-3.22A7.53,7.53,0,0,1,52,89.13a7.22,7.22,0,0,1,5.49-3c.62,0,1.72,0,3.28,0s2.71,0,3.44,0l.46,0q7.77-.55,9.65-4.9a16.12,16.12,0,0,0,1.11-4.29l-.08-1.09a18.61,18.61,0,0,0-4-8.31l-1.5-1.29a20.35,20.35,0,0,0-9-3.43,41.49,41.49,0,0,0-8.1,1.5A46.19,46.19,0,0,1,43.53,65.91Z"/><rect class="cls-4" width="202.37" height="202.37"/></g></g></svg>