<svg xmlns="http://www.w3.org/2000/svg" viewBox="0 0 203.15 112.45"><defs><style>.cls-1,.cls-3{fill:none;stroke-width:2px;}.cls-1{stroke:#006682;stroke-linecap:round;stroke-linejoin:round;}.cls-2{fill:#2dc2bd;}.cls-3{stroke:#f6001b;stroke-miterlimit:10;}</style></defs><g id="Capa_2" data-name="Capa 2"><g id="Layer_1" data-name="Layer 1"><path class="cls-1" d="M166.59,16.91l.95.11a6,6,0,0,1,5.25,6.6l-8.75,77a6,6,0,0,1-6.59,5.25l-1-.11c-3.3-.37-20.29-32.88-42.15-35.37L87.12,67.31A8.1,8.1,0,0,1,80,58.37L81.41,46a8.09,8.09,0,0,1,8.94-7.11l27.22,3.09C139.44,44.41,163.29,16.54,166.59,16.91Z"/><path class="cls-1" d="M170,47.71a15.1,15.1,0,0,1-3.27,28.81"/><line class="cls-1" x1="118.09" y1="41.99" x2="114.85" y2="70.46"/><path class="cls-1" d="M108.35,69.72c.39,6.42-2,12.81,1.17,19.27l5.32,10.94c1.34,2.75-1.8,6.91-4.74,6.57l-9.72-1.1a7.44,7.44,0,0,1-6.16-6.12L90.43,67.69Z"/><line class="cls-2" x1="189.56" y1="50.57" x2="202.48" y2="44.85"/><line class="cls-3" x1="189.56" y1="50.57" x2="202.48" y2="44.85"/><line class="cls-2" x1="189" y1="63.53" x2="203.04" y2="65.02"/><line class="cls-3" x1="189" y1="63.53" x2="203.04" y2="65.02"/><line class="cls-2" x1="187.78" y1="77.05" x2="200.81" y2="82.5"/><line class="cls-3" x1="187.78" y1="77.05" x2="200.81" y2="82.5"/><path class="cls-1" d="M65.3,13.29,70.5,99.2a8.42,8.42,0,0,1-7.61,9.07l-47.07,3.16a8.4,8.4,0,0,1-8.75-8L1,13.26A8.4,8.4,0,0,1,8.63,4.19L55.7,1c3.53-.23,9.2.61,9.45,7.76Z"/><line class="cls-1" x1="33.81" y1="98.97" x2="44.11" y2="98.28"/><line class="cls-1" x1="8.07" y1="89.26" x2="68.33" y2="85.22"/><line class="cls-1" x1="3.31" y1="18.31" x2="63.57" y2="14.27"/><rect class="cls-3" x="12.64" y="27.53" width="46.22" height="46.22" transform="translate(-3.31 2.51) rotate(-3.84)"/></g></g></svg>