<svg xmlns="http://www.w3.org/2000/svg" viewBox="0 0 265 265"><defs><style>.cls-1{fill:#fc0;}.cls-2,.cls-3,.cls-4{fill:none;}.cls-2{stroke:#000;}.cls-2,.cls-3{stroke-linecap:round;stroke-linejoin:round;stroke-width:3.08px;}.cls-3{stroke:#fff;}</style></defs><g id="Capa_2" data-name="Capa 2"><g id="Capa_1-2" data-name="Capa 1"><circle class="cls-1" cx="137" cy="132.5" r="100.66"/><polygon class="cls-2" points="195.65 178.53 156.17 202.52 160.33 156.51 125.32 126.38 170.36 116.12 188.2 73.51 211.87 113.18 257.91 116.97 227.5 151.75 238.12 196.71 195.65 178.53"/><polygon class="cls-3" points="194.73 165.54 168.71 181.35 171.46 151.03 148.38 131.18 178.06 124.42 189.82 96.34 205.42 122.48 235.76 124.98 215.72 147.89 222.72 177.52 194.73 165.54"/><polyline class="cls-3" points="47.93 147.68 53.84 169.18 75.96 172"/><polygon class="cls-2" points="133.54 76.84 90.72 210.69 69.42 150.76 7.09 138.14 133.54 76.84"/><line class="cls-2" x1="132.34" y1="78.69" x2="69.42" y2="150.76"/><path d="M194.41,149.27l0,.07,7.38-2.2a.7.7,0,0,1,.53.05.59.59,0,0,1,.33.39l.71,2.38a.62.62,0,0,1-.06.53.66.66,0,0,1-.41.34l-13.62,4.06a.61.61,0,0,1-.51-.07.71.71,0,0,1-.33-.41l-.1-.34a1.39,1.39,0,0,1,0-.85q2-4.8,5.36-13.76a6.52,6.52,0,0,0,.61-4.34,3.12,3.12,0,0,0-1.61-1.92,3.92,3.92,0,0,0-3-.11,5.51,5.51,0,0,0-3.26,3.16.59.59,0,0,1-.94.28l-2.16-1.15a.62.62,0,0,1-.31-.89,3.91,3.91,0,0,1,.21-.46c.1-.2.32-.57.66-1.1a11.63,11.63,0,0,1,1.12-1.45,10.64,10.64,0,0,1,1.64-1.36,7.9,7.9,0,0,1,2.17-1.05,8.19,8.19,0,0,1,6.25.3,7,7,0,0,1,3.79,6.47,9.71,9.71,0,0,1-.24,1.82q-.19.72-.69,2.25Q197.61,141.13,194.41,149.27Z"/><rect class="cls-4" width="265" height="265"/></g></g></svg>