<svg xmlns="http://www.w3.org/2000/svg" viewBox="0 0 185.35 110.54"><defs><style>.cls-1,.cls-2{fill:none;stroke-miterlimit:10;stroke-width:2px;}.cls-1{stroke:#006682;}.cls-2{stroke:#f6001b;}</style></defs><g id="Capa_2" data-name="Capa 2"><g id="Capa_1-2" data-name="Capa 1"><path class="cls-1" d="M46.11,36.56a26,26,0,0,0-24.66-7.34c-.38.08-.76.18-1.14.28A26.07,26.07,0,0,0,2.06,47.63a26.72,26.72,0,0,0,6.1,25.68l26.93,29.12,0,0a4.63,4.63,0,0,0,7.78-2v-.05l10-38.4a26.68,26.68,0,0,0-6.77-25.5Z"/><path class="cls-1" d="M162.9,16a30.78,30.78,0,0,0-35.11,13.1,30.77,30.77,0,0,0-25.3-27.63C85-1.66,69,11.34,66.33,28.91c-2.15,14.29,3,25,11.06,38.23,7.58,12.4,8.69,11.17,24.52,37.3a10.57,10.57,0,0,0,14.5,3.58l0,0c17.46-10.68,19.36-10.13,38.89-22.07,13.21-8.08,22.66-15.28,27.26-29C188.24,40.08,179.9,21.21,162.9,16Z"/><path class="cls-2" d="M170.2,51.2a19.09,19.09,0,0,0-14.08-23"/><path class="cls-2" d="M80.08,29.48a19.07,19.07,0,0,1,23-14.08"/><circle class="cls-2" cx="27.82" cy="55.27" r="9.32"/></g></g></svg>