<svg xmlns="http://www.w3.org/2000/svg" viewBox="0 0 206.52 108.83"><defs><style>.cls-1,.cls-2{fill:none;stroke-width:2px;}.cls-1{stroke:#006682;stroke-linecap:round;stroke-linejoin:round;}.cls-2{stroke:#f6001b;stroke-miterlimit:10;}</style></defs><g id="Capa_2" data-name="Capa 2"><g id="Layer_1" data-name="Layer 1"><polygon class="cls-1" points="155.47 80.28 124.54 96.19 130.12 61.86 105.43 37.36 139.81 32.05 155.47 1 171.14 32.05 205.52 37.36 180.82 61.86 186.4 96.19 155.47 80.28"/><polygon class="cls-2" points="155.47 70.47 135.09 80.96 138.77 58.33 122.49 42.19 145.15 38.69 155.47 18.23 165.8 38.69 188.45 42.19 172.18 58.33 175.86 80.96 155.47 70.47"/><polyline class="cls-2" points="69.08 58.23 65.79 74.7 49.32 77.99"/><polygon class="cls-1" points="1 9.59 40.3 107.83 53.1 61.69 99.25 48.89 1 9.59"/><line class="cls-1" x1="2" y1="10.91" x2="53.1" y2="61.69"/></g></g></svg>