<svg xmlns="http://www.w3.org/2000/svg" viewBox="0 0 227.77 100.13"><defs><style>.cls-1,.cls-2,.cls-3{fill:none;stroke-width:2px;}.cls-1,.cls-2{stroke:#006682;stroke-linejoin:round;}.cls-1{stroke-linecap:round;}.cls-2{stroke-linecap:square;}.cls-3{stroke:#f6001b;stroke-miterlimit:10;}</style></defs><g id="Capa_2" data-name="Capa 2"><g id="Layer_1" data-name="Layer 1"><circle class="cls-1" cx="177.7" cy="50.07" r="49.07" transform="translate(124.95 226.99) rotate(-89.13)"/><line class="cls-2" x1="128.64" y1="50.07" x2="138.96" y2="50.07"/><line class="cls-2" x1="177.7" y1="1" x2="177.7" y2="11.33"/><line class="cls-2" x1="177.7" y1="88.8" x2="177.7" y2="99.13"/><line class="cls-2" x1="216.44" y1="50.07" x2="226.77" y2="50.07"/><polygon class="cls-3" points="199.61 28.15 183.18 55.55 172.22 44.59 199.61 28.15"/><polygon class="cls-3" points="155.79 71.98 172.22 44.59 183.18 55.55 155.79 71.98"/><path class="cls-1" d="M112.93,90.21,3.87,94.91,1,28.26l54.53-2.34-.65-15.15L96.8,9A12.61,12.61,0,0,1,110,21Z"/><path class="cls-3" d="M50.91,59.5a18.2,18.2,0,1,0-17.4,19A18.19,18.19,0,0,0,50.91,59.5Z"/><line class="cls-1" x1="110.28" y1="41.64" x2="61.78" y2="43.86"/><path class="cls-1" d="M13.12,27.74l-.41-9.45a5.71,5.71,0,0,1,5.45-5.94l18.91-.81A5.7,5.7,0,0,1,43,17l.4,9.46"/><path class="cls-3" d="M41.65,62.1a9.1,9.1,0,1,0-10.73,7.11A9.1,9.1,0,0,0,41.65,62.1Z"/></g></g></svg>