<svg xmlns="http://www.w3.org/2000/svg" viewBox="0 0 201.38 111.76"><defs><style>.cls-1,.cls-2,.cls-3{fill:none;stroke-width:2px;}.cls-1,.cls-2{stroke:#006682;}.cls-1{stroke-linecap:round;stroke-linejoin:round;}.cls-2,.cls-3{stroke-miterlimit:10;}.cls-3{stroke:#f6001b;}</style></defs><g id="Capa_2" data-name="Capa 2"><g id="Layer_1" data-name="Layer 1"><path class="cls-1" d="M41.61,24.69c-14.22,23.92-14.13,48.66-4,74-.07,0-.15.13-.18.12-4.86-2.35-9.78-4.57-14.55-7.08-6.59-3.45-12.35-8-16.38-14.35A23.92,23.92,0,0,1,4.4,72.69a2.37,2.37,0,0,1,.85-2.86c1-.72,1.87-.27,2.76.21a12.39,12.39,0,0,0,1.93,1c1.23.37,2.13-.51,1.66-1.69a26.55,26.55,0,0,0-1.88-3.63,61.86,61.86,0,0,1-7.63-18,35.38,35.38,0,0,1-.94-11.55c.11-1.12.22-2.44,1.58-2.78A3.88,3.88,0,0,1,6.6,34.52c.77.78,1.47,1.64,2.2,2.46a1.92,1.92,0,0,0,.68.6c.75.27,1.68.79,2.27.55a2.76,2.76,0,0,0,1.12-2c.32-3.29.38-6.6.75-9.89a20.75,20.75,0,0,1,3.94-10.32,8,8,0,0,1,2.66-2.22,3,3,0,0,1,3.84.76c.54.59,1,1.23,1.52,1.85.34.42.62.87,1,1.26,2,2.19,3.27,2.17,4.83-.3,1.41-2.25,2.68-4.59,3.9-7a19.48,19.48,0,0,1,4.24-6.16,7.64,7.64,0,0,1,2.75-1.48c1-.29,1.68.27,1.87,1.33.06.33.13.67.22,1,.41,1.48,1.38,2.05,2.76,1.37,1.59-.79,3.07-1.81,4.6-2.73,1.14-.68,2.24-1.45,3.43-2,1.42-.69,2.92-1,4.25.22a4.56,4.56,0,0,1,.74,5c-.82,1.45-1.82,2.8-2.77,4.18-.67,1-1.5,2-1,3.22s1.84,1.18,3,1.27c3.85.34,5.07,2.57,2.77,5.66a47.92,47.92,0,0,1-5.35,5.41A48.85,48.85,0,0,0,52,31.16c-1.68,2.15-.1,5,2.65,5.15a17.49,17.49,0,0,0,2.39-.13c.83-.07,1.66-.26,2.49-.27,2.92,0,4.26,1.87,3.84,4.76a5.29,5.29,0,0,1-1.21,2.52c-2.66,3.08-5.39,6.1-8.15,9.09-2.34,2.55-4.78,5-7.11,7.57a10.1,10.1,0,0,0-1.64,2.45,2,2,0,0,0,1.84,3,13.6,13.6,0,0,0,3-.53,31.43,31.43,0,0,1,3.65-.82,2.35,2.35,0,0,1,2.7,2.74,13.68,13.68,0,0,1-1,3.7c-1.39,3.33-3.08,6.54-4.32,9.92-3.16,8.56-3.8,17.26-.78,26,.5,1.46,1.2,2.85,1.88,4.45C48.39,106.88,45,103,42.61,98.12a93.9,93.9,0,0,1-8.3-24.54,73.78,73.78,0,0,1,6.46-46.4c.39-.8.79-1.6,1.19-2.41Z"/><path class="cls-2" d="M178.93,16A30.79,30.79,0,0,0,143.82,29.1a30.77,30.77,0,0,0-25.3-27.63C101-1.66,85,11.34,82.36,28.91c-2.15,14.29,3,25,11.06,38.23,7.58,12.4,8.69,11.17,24.52,37.3A10.56,10.56,0,0,0,132.47,108c17.46-10.68,19.36-10.13,38.89-22.07,13.21-8.08,22.66-15.28,27.26-29C204.27,40.08,195.93,21.21,178.93,16Z"/><path class="cls-3" d="M186.23,51.2a19.08,19.08,0,0,0-14.08-23"/><path class="cls-3" d="M96.11,29.48a19.08,19.08,0,0,1,23-14.08"/></g></g></svg>