<svg xmlns="http://www.w3.org/2000/svg" viewBox="0 0 265 265"><defs><style>.cls-1{fill:#fc0;}.cls-2,.cls-3,.cls-4{fill:none;}.cls-2{stroke:#000;}.cls-2,.cls-3{stroke-linecap:round;stroke-linejoin:round;stroke-width:3.08px;}.cls-3{stroke:#fff;}</style></defs><g id="Capa_2" data-name="Capa 2"><g id="Capa_1-2" data-name="Capa 1"><circle class="cls-1" cx="132.17" cy="132.5" r="100.66"/><circle class="cls-2" cx="197.22" cy="133.67" r="49.07" transform="translate(33.49 306.75) rotate(-80.72)"/><line class="cls-2" x1="148.69" y1="126.49" x2="158.9" y2="128.01"/><line class="cls-2" x1="191.56" y1="171.99" x2="190.04" y2="182.21"/><line class="cls-2" x1="208.56" y1="87.99" x2="207.04" y2="98.21"/><line class="cls-2" x1="235.54" y1="139.34" x2="245.76" y2="140.86"/><polygon class="cls-3" points="222.11 115.2 201.84 139.9 192.61 127.45 222.11 115.2"/><polygon class="cls-3" points="172.34 152.15 192.61 127.45 201.84 139.9 172.34 152.15"/><path class="cls-2" d="M127.28,163.91,18.7,152.6l6.92-66.35L79.9,91.9l1.57-15.08,41.74,4.35A12.63,12.63,0,0,1,134.46,95Z"/><path class="cls-3" d="M70.42,124.45a18.2,18.2,0,1,0-20,16.21A18.2,18.2,0,0,0,70.42,124.45Z"/><line class="cls-2" x1="131.76" y1="115.47" x2="83.46" y2="110.57"/><path class="cls-3" d="M60.87,125.67a9.1,9.1,0,1,0-11.65,5.46A9.09,9.09,0,0,0,60.87,125.67Z"/><path class="cls-2" d="M38,86.82l1-9.4a5.7,5.7,0,0,1,6.28-5.06l18.81,2a5.7,5.7,0,0,1,5,6.28l-1,9.4"/><rect class="cls-4" width="265" height="265"/></g></g></svg>