<svg xmlns="http://www.w3.org/2000/svg" viewBox="0 0 265 265"><defs><style>.cls-1{fill:#fc0;}.cls-2,.cls-3,.cls-4{fill:none;}.cls-2{stroke:#000;}.cls-2,.cls-3{stroke-linecap:round;stroke-linejoin:round;stroke-width:3.08px;}.cls-3{stroke:#fff;}</style></defs><g id="Capa_2" data-name="Capa 2"><g id="Capa_1-2" data-name="Capa 1"><circle class="cls-1" cx="138.95" cy="132.5" r="100.66"/><path class="cls-2" d="M189.42,76l1-.15a6.14,6.14,0,0,1,7,5.12l12,78.58a6.13,6.13,0,0,1-5.11,7l-1,.15c-3.36.52-28.93-27.09-51.24-23.67l-27.78,4.26a8.31,8.31,0,0,1-9.44-6.93l-2-12.68a8.31,8.31,0,0,1,6.94-9.44l27.77-4.26C169.94,110.49,186.05,76.49,189.42,76Z"/><path class="cls-2" d="M201.05,105.54a15.49,15.49,0,0,1,4.51,29.4"/><line class="cls-2" x1="148.16" y1="113.84" x2="152.62" y2="142.89"/><path class="cls-2" d="M146,143.91c2.11,6.25,1.49,13.21,6.34,18.76l8.21,9.39c2.06,2.36.08,7.32-2.92,7.78l-9.92,1.53A7.62,7.62,0,0,1,140,177L127.7,146.71Z"/><line x1="221.21" y1="103.1" x2="232.46" y2="93.96"/><line class="cls-3" x1="221.21" y1="103.1" x2="232.46" y2="93.96"/><line x1="224.14" y1="116.08" x2="238.45" y2="113.78"/><line class="cls-3" x1="224.14" y1="116.08" x2="238.45" y2="113.78"/><line x1="226.58" y1="129.79" x2="240.94" y2="131.68"/><line class="cls-3" x1="226.58" y1="129.79" x2="240.94" y2="131.68"/><path class="cls-2" d="M88.19,99.64l28.25,83.63a8.64,8.64,0,0,1-5.08,11L65.62,210.08a8.61,8.61,0,0,1-10.81-5.53L24.56,116.9a8.61,8.61,0,0,1,5.08-11L75.38,90.09c3.43-1.19,9.28-1.88,11.44,5.13Z"/><line class="cls-2" x1="80.07" y1="192.91" x2="90.08" y2="189.46"/><line class="cls-2" x1="51.98" y1="190.23" x2="110.54" y2="170.02"/><line class="cls-2" x1="28.18" y1="121.28" x2="86.74" y2="101.07"/><rect class="cls-3" x="45.28" y="120.85" width="47.41" height="47.4" transform="translate(-43.39 30.42) rotate(-19.05)"/><rect class="cls-4" width="265" height="265"/></g></g></svg>