<svg xmlns="http://www.w3.org/2000/svg" viewBox="0 0 238.02 107.17"><defs><style>.cls-1,.cls-2{fill:none;stroke-width:2px;}.cls-1{stroke:#006682;stroke-linecap:round;stroke-linejoin:round;}.cls-2{stroke:#f6001b;stroke-miterlimit:10;}</style></defs><g id="Capa_2" data-name="Capa 2"><g id="Layer_1" data-name="Layer 1"><path class="cls-1" d="M233.09,88.77l-107.3.52a3.94,3.94,0,0,1-4-3.92l-.06-12.51-.33-67.37a4,4,0,0,1,3.93-4L232.67,1a3.94,3.94,0,0,1,4,3.93L237,84.8A4,4,0,0,1,233.09,88.77Z"/><line class="cls-2" x1="237.15" y1="66.95" x2="121.95" y2="67.51"/><path class="cls-1" d="M190.42,89c.06,13.37,13.79,16.39,13.79,16.39l-74.06.36"/><path class="cls-1" d="M168.47,89.09c.07,13.37-13.63,16.52-13.63,16.52l74.06-.36"/><path class="cls-2" d="M184.88,78a2.75,2.75,0,1,0-2.73,2.76A2.74,2.74,0,0,0,184.88,78Z"/><polygon class="cls-2" points="36.09 26.47 81.57 53.87 37.59 83.61 36.84 55.04 36.63 46.96 36.09 26.47"/><path class="cls-1" d="M101.17,46.2A50.52,50.52,0,1,0,61,105.27,50.54,50.54,0,0,0,101.17,46.2Z"/></g></g></svg>