<svg xmlns="http://www.w3.org/2000/svg" viewBox="0 0 355 115.86"><defs><style>.cls-1,.cls-3{fill:#fff;}.cls-2,.cls-4{fill:#fc0;}.cls-3,.cls-4{fill-rule:evenodd;}.cls-5{fill:none;}</style></defs><g id="Capa_2" data-name="Capa 2"><g id="Capa_1-2" data-name="Capa 1"><path class="cls-1" d="M238.78,92.58h-7.21V62.2h6.56a7.25,7.25,0,0,1,5,1.69,6,6,0,0,1,1.65,2.43,8.63,8.63,0,0,1,.56,3.21v2.83A6.08,6.08,0,0,1,243.6,77Q246,78.74,246,82.51v2.78a8.1,8.1,0,0,1-.56,3.17,6,6,0,0,1-1.65,2.43A7.15,7.15,0,0,1,238.78,92.58Zm-2.43-17.53h1.78a2.61,2.61,0,0,0,1.78-.52,3,3,0,0,0,.65-2.17V69.53a2.92,2.92,0,0,0-.61-2.08,2.7,2.7,0,0,0-1.82-.48h-1.78Zm0,12.76h2.43a2.68,2.68,0,0,0,1.82-.48,2.72,2.72,0,0,0,.61-2V82.51a2.93,2.93,0,0,0-.65-2.17,2.56,2.56,0,0,0-1.78-.52h-2.43Z"/><path class="cls-1" d="M248.85,92.58V62.2h4.77V92.58Z"/><path class="cls-1" d="M256.44,92.58,264.34,67h-7.9V62.2h14.45L263,87.76h7.9v4.82Z"/><path class="cls-1" d="M282.83,76.61l6.12,16h-5.12l-3.69-9.72-1.65,3.77v6h-4.78V62.2h4.78V74.53l5.29-12.33H289Z"/><path class="cls-1" d="M302.36,92.58l-.87-4.82H296l-.87,4.82h-4.86l6.08-30.38h4.77l6.08,30.38ZM296.85,83h3.82L298.76,72.1Z"/><path class="cls-1" d="M309.56,92.58V62.2h4.78V92.58Z"/><path class="cls-1" d="M328.7,92.58l-.87-4.82h-5.46l-.87,4.82h-4.86l6.07-30.38h4.78l6.07,30.38ZM323.19,83H327L325.1,72.1Z"/><path class="cls-1" d="M238.78,92.58h-7.21V62.2h6.56a7.25,7.25,0,0,1,5,1.69,6,6,0,0,1,1.65,2.43,8.63,8.63,0,0,1,.56,3.21v2.83A6.08,6.08,0,0,1,243.6,77Q246,78.74,246,82.51v2.78a8.1,8.1,0,0,1-.56,3.17,6,6,0,0,1-1.65,2.43A7.15,7.15,0,0,1,238.78,92.58Zm-2.43-17.53h1.78a2.61,2.61,0,0,0,1.78-.52,3,3,0,0,0,.65-2.17V69.53a2.92,2.92,0,0,0-.61-2.08,2.7,2.7,0,0,0-1.82-.48h-1.78Zm0,12.76h2.43a2.68,2.68,0,0,0,1.82-.48,2.72,2.72,0,0,0,.61-2V82.51a2.93,2.93,0,0,0-.65-2.17,2.56,2.56,0,0,0-1.78-.52h-2.43Z"/><path class="cls-1" d="M248.85,92.58V62.2h4.77V92.58Z"/><path class="cls-1" d="M256.44,92.58,264.34,67h-7.9V62.2h14.45L263,87.76h7.9v4.82Z"/><path class="cls-1" d="M282.83,76.61l6.12,16h-5.12l-3.69-9.72-1.65,3.77v6h-4.78V62.2h4.78V74.53l5.29-12.33H289Z"/><path class="cls-1" d="M302.36,92.58l-.87-4.82H296l-.87,4.82h-4.86l6.08-30.38h4.77l6.08,30.38ZM296.85,83h3.82L298.76,72.1Z"/><path class="cls-1" d="M309.56,92.58V62.2h4.78V92.58Z"/><path class="cls-1" d="M328.7,92.58l-.87-4.82h-5.46l-.87,4.82h-4.86l6.07-30.38h4.78l6.07,30.38ZM323.19,83H327L325.1,72.1Z"/><path class="cls-1" d="M239.47,58.32h-8.22V23.67h7.47a8.27,8.27,0,0,1,5.7,1.93,6.8,6.8,0,0,1,1.88,2.77,9.9,9.9,0,0,1,.64,3.67v3.21a6.92,6.92,0,0,1-2,5.35q2.72,1.92,2.72,6.23V50a9,9,0,0,1-.64,3.61,6.74,6.74,0,0,1-1.88,2.78A8.19,8.19,0,0,1,239.47,58.32Zm-2.78-20h2a3,3,0,0,0,2-.59,3.41,3.41,0,0,0,.74-2.48V32a3.3,3.3,0,0,0-.69-2.38,3.09,3.09,0,0,0-2.08-.54h-2Zm0,14.55h2.78a3.06,3.06,0,0,0,2.07-.54,3.09,3.09,0,0,0,.7-2.33V46.83a3.28,3.28,0,0,0-.75-2.47,2.87,2.87,0,0,0-2-.59h-2.78Z"/><path class="cls-1" d="M251,58.32V23.67h5.44V58.32Z"/><path class="cls-1" d="M260.35,58.32V23.67h5.44v29.2h8.91v5.45Z"/><path class="cls-1" d="M285.54,58.32h-8.21V23.67h7.47a8.24,8.24,0,0,1,5.69,1.93,6.61,6.61,0,0,1,1.88,2.77A9.7,9.7,0,0,1,293,32v3.21a7,7,0,0,1-2,5.35q2.71,1.92,2.72,6.23V50a9,9,0,0,1-.65,3.61,6.65,6.65,0,0,1-1.88,2.78A8.17,8.17,0,0,1,285.54,58.32Zm-2.77-20h2a3,3,0,0,0,2-.59,3.45,3.45,0,0,0,.74-2.48V32a3.3,3.3,0,0,0-.69-2.38,3.11,3.11,0,0,0-2.08-.54h-2Zm0,14.55h2.77a3.11,3.11,0,0,0,2.08-.54,3.13,3.13,0,0,0,.69-2.33V46.83a3.29,3.29,0,0,0-.74-2.47,2.9,2.9,0,0,0-2-.59h-2.77Z"/><path class="cls-1" d="M309.25,58.32l-1-5.5H302l-1,5.5h-5.54l6.93-34.65h5.44l6.93,34.65ZM303,47.38h4.36L305.14,35Z"/><path class="cls-1" d="M325,58.71a8,8,0,0,1-5.74-2,8.55,8.55,0,0,1-2.48-6.48V31.79a8.59,8.59,0,0,1,2.48-6.49,9.17,9.17,0,0,1,11.48,0,8.58,8.58,0,0,1,2.47,6.49V50.2a8.54,8.54,0,0,1-2.47,6.48A8.06,8.06,0,0,1,325,58.71Zm0-30a3,3,0,0,0-2,.59,3.31,3.31,0,0,0-.74,2.48V50.2a3.27,3.27,0,0,0,.74,2.47,2.9,2.9,0,0,0,2,.6,2.81,2.81,0,0,0,2-.6,3.21,3.21,0,0,0,.74-2.47V31.79a3.25,3.25,0,0,0-.74-2.48A2.86,2.86,0,0,0,325,28.72Z"/><path class="cls-1" d="M239.47,58.32h-8.22V23.67h7.47a8.27,8.27,0,0,1,5.7,1.93,6.8,6.8,0,0,1,1.88,2.77,9.9,9.9,0,0,1,.64,3.67v3.21a6.92,6.92,0,0,1-2,5.35q2.72,1.92,2.72,6.23V50a9,9,0,0,1-.64,3.61,6.74,6.74,0,0,1-1.88,2.78A8.19,8.19,0,0,1,239.47,58.32Zm-2.78-20h2a3,3,0,0,0,2-.59,3.41,3.41,0,0,0,.74-2.48V32a3.3,3.3,0,0,0-.69-2.38,3.09,3.09,0,0,0-2.08-.54h-2Zm0,14.55h2.78a3.06,3.06,0,0,0,2.07-.54,3.09,3.09,0,0,0,.7-2.33V46.83a3.28,3.28,0,0,0-.75-2.47,2.87,2.87,0,0,0-2-.59h-2.78Z"/><path class="cls-1" d="M251,58.32V23.67h5.44V58.32Z"/><path class="cls-1" d="M260.35,58.32V23.67h5.44v29.2h8.91v5.45Z"/><path class="cls-1" d="M285.54,58.32h-8.21V23.67h7.47a8.24,8.24,0,0,1,5.69,1.93,6.61,6.61,0,0,1,1.88,2.77A9.7,9.7,0,0,1,293,32v3.21a7,7,0,0,1-2,5.35q2.71,1.92,2.72,6.23V50a9,9,0,0,1-.65,3.61,6.65,6.65,0,0,1-1.88,2.78A8.17,8.17,0,0,1,285.54,58.32Zm-2.77-20h2a3,3,0,0,0,2-.59,3.45,3.45,0,0,0,.74-2.48V32a3.3,3.3,0,0,0-.69-2.38,3.11,3.11,0,0,0-2.08-.54h-2Zm0,14.55h2.77a3.11,3.11,0,0,0,2.08-.54,3.13,3.13,0,0,0,.69-2.33V46.83a3.29,3.29,0,0,0-.74-2.47,2.9,2.9,0,0,0-2-.59h-2.77Z"/><path class="cls-1" d="M309.25,58.32l-1-5.5H302l-1,5.5h-5.54l6.93-34.65h5.44l6.93,34.65ZM303,47.38h4.36L305.14,35Z"/><path class="cls-1" d="M325,58.71a8,8,0,0,1-5.74-2,8.55,8.55,0,0,1-2.48-6.48V31.79a8.59,8.59,0,0,1,2.48-6.49,9.17,9.17,0,0,1,11.48,0,8.58,8.58,0,0,1,2.47,6.49V50.2a8.54,8.54,0,0,1-2.47,6.48A8.06,8.06,0,0,1,325,58.71Zm0-30a3,3,0,0,0-2,.59,3.31,3.31,0,0,0-.74,2.48V50.2a3.27,3.27,0,0,0,.74,2.47,2.9,2.9,0,0,0,2,.6,2.81,2.81,0,0,0,2-.6,3.21,3.21,0,0,0,.74-2.47V31.79a3.25,3.25,0,0,0-.74-2.48A2.86,2.86,0,0,0,325,28.72Z"/><path class="cls-2" d="M192.76,46.7c2.81-3.06,6.07-4.28,10-3.14,5.23,1.52,7.81,6.91,6,12.4A22.18,22.18,0,0,1,203.68,64a54.24,54.24,0,0,1-9.93,8.34,1.37,1.37,0,0,1-1.71.12c-5.15-3.45-9.91-7.32-13.33-12.58a13.9,13.9,0,0,1-2.44-6.72,9.23,9.23,0,0,1,16-7.05Zm-14.11,6.54c0,1.83,1.12,4,2.52,6A42.65,42.65,0,0,0,192.3,69.74a1.12,1.12,0,0,0,1,0,47.6,47.6,0,0,0,9.29-8.12,17.37,17.37,0,0,0,4.07-7.21c1.26-5.26-3.09-9.84-8.19-8.62A6.92,6.92,0,0,0,194,49.33c-.22.39-.75.87-1.11.85s-.85-.52-1.26-.84c-.12-.1-.16-.29-.25-.44a6.85,6.85,0,0,0-7.75-3.09C180.6,46.68,178.59,49.41,178.65,53.24Z"/><path class="cls-3" d="M30.8,61.57,27.11,49a2.73,2.73,0,0,0-2.64-2,2.84,2.84,0,0,0-3.11,2.76,3.82,3.82,0,0,0,.41,1.64L26.58,65c.94,2.7,1.82,3.58,4.22,3.58h.47c2.47,0,3.05-.88,4-3.52l4.87-13.67a4.74,4.74,0,0,0,.36-1.64A2.81,2.81,0,0,0,37.38,47a2.6,2.6,0,0,0-2.59,2L31,61.57Z"/><path class="cls-3" d="M90.54,36.75a3,3,0,1,1,5.92,0V65.33a3,3,0,1,1-5.92,0V36.75Z"/><path class="cls-3" d="M101.16,50.07a2.89,2.89,0,0,1,3-3.11,2.85,2.85,0,0,1,2.93,3.11V65.33a2.91,2.91,0,0,1-2.93,3.22,3,3,0,0,1-3-3.22V50.07Z"/><path class="cls-3" d="M131.08,65.38a3,3,0,1,1-6,0V55.64c0-2.34-1.29-3.93-3.76-3.93s-3.87,1.23-3.87,3.93v9.74a3,3,0,1,1-5.93,0V56.52c0-6.57,3.46-9.79,9.8-9.79s9.74,3.22,9.74,9.74v8.91Z"/><path class="cls-3" d="M43.65,49.89a3,3,0,0,1,3-3.16,2.93,2.93,0,0,1,2.93,3.16v9.8c0,2.35,1.29,3.88,3.76,3.88s3.93-1.18,3.93-3.88v-9.8a3,3,0,1,1,5.92,0v8.92c0,6.52-3.46,9.8-9.8,9.8s-9.74-3.28-9.74-9.8V49.89Z"/><path class="cls-3" d="M149.62,53.41c0-.7-1.35-1.7-3.81-1.7-3.7,0-5.1,2.35-5.1,6,0,4.22,1.4,5.81,4.4,5.81s4.51-2,4.51-6V53.41Zm2.88-5.28c1.64.71,2.7,1.7,2.7,3.58V69.43c0,6.34-3.35,10.51-10.8,10.51-3.64,0-8.39-1.94-8.39-4.46A2.4,2.4,0,0,1,138.18,73c1.88,0,3.29,1.65,6.69,1.65s4.75-1.71,4.75-4.52V66.79a7.57,7.57,0,0,1-5.45,1.82c-5.52,0-9.33-4-9.33-10.85,0-6.63,4.28-11,10.79-11a16.47,16.47,0,0,1,6.87,1.4Z"/><path class="cls-3" d="M81,55.76c-.17-2.82-1.46-4.52-4.22-4.52s-4,1.24-4.23,4.52Zm-8.45,3.93c.35,2.41,1.59,4.05,4.58,4.05s4.58-1.11,6-1.11A2.41,2.41,0,0,1,85.31,65c0,2.29-3.93,3.52-8.27,3.52-6.34,0-10.27-4.16-10.27-10.85s3.88-11.09,10.15-11.09c6.63,0,9.57,4.46,9.57,10.5,0,1.7-.71,2.58-2.41,2.58Z"/><path class="cls-4" d="M164.59,39.27a3.82,3.82,0,1,1-3.82-3.69,3.52,3.52,0,0,1,3.82,3.69Z"/><rect class="cls-5" width="355" height="115.86"/></g></g></svg>