<svg xmlns="http://www.w3.org/2000/svg" viewBox="0 0 357 181.83"><defs><style>.cls-1,.cls-3{fill:#fc0;}.cls-2,.cls-3{fill-rule:evenodd;}</style></defs><g id="Capa_2" data-name="Capa 2"><g id="Capa_1-2" data-name="Capa 1"><path d="M18.67,152.64c.52,0,.78.42.78,1.28a10.09,10.09,0,0,1-.06,1.09c0,.37-.1.78-.17,1.22s-.11.78-.14,1c0,.09-.13,1.09-.37,3h1.15l.64,0c.29,0,.51,0,.64,0H22.3a1.94,1.94,0,0,1,.29,0l.29,0a2.91,2.91,0,0,1,1.24.51,1.3,1.3,0,0,1,.53,1.1,1.63,1.63,0,0,1-.06.45,2,2,0,0,1-.12.33,1.17,1.17,0,0,1-.25.29l-.25.21-.31.18a2.84,2.84,0,0,0-.29.19l-.24.12a6.16,6.16,0,0,1-2.23.29h-.29L20,164c-.28,0-.48,0-.62,0H18.21q-.08.66-.27,1.86t-.27,1.74H20c2.09,0,3.4.29,3.92.86a1.45,1.45,0,0,1,.33.79.88.88,0,0,1,0,.16.37.37,0,0,0,0,.13l0,0,0,0c-.25.8-1.26,1.2-3,1.2H19.82c-.16,0-.69,0-1.57.08a1.38,1.38,0,0,0-.31,0l-.35.06a1.83,1.83,0,0,1-.33,0c-.11.75-.27,1.83-.49,3.27-.06.3-.12.75-.19,1.34s-.13,1-.19,1.34c-.38,2.06-1,3.1-2,3.1l-.45-.13a1.47,1.47,0,0,1-.58-.86.57.57,0,0,1-.08-.25,3.57,3.57,0,0,1,0-.66v-.7c.05-.58.19-1.49.41-2.73.22-1.68.37-2.86.45-3.55h-.29l-.35,0-.31,0h-.53c-1.66,0-2.91,0-3.76,0a41.82,41.82,0,0,1-.54,4.29c0,.14-.08.53-.16,1.16S8,177.73,8,178c-.16,1-.41,1.57-.74,1.74a1.74,1.74,0,0,1-.33.08.88.88,0,0,1-.62-.29,3.44,3.44,0,0,1-.75-2.39,1.05,1.05,0,0,1,0-.13.35.35,0,0,0,0-.12c0-.85.08-2.27.24-4.25V172a4.43,4.43,0,0,1,0-.64v-.29H5.58l-.62,0-.62,0H4a6,6,0,0,1-2.19-.28.58.58,0,0,1-.25-.09L1,170.31a1.43,1.43,0,0,1-.43-.49A1.51,1.51,0,0,1,.29,169c0-.85.59-1.39,1.77-1.61l.27,0,.27,0H3.8l.64,0,.64,0a8.64,8.64,0,0,0,1,0,2,2,0,0,0,0-.49v-.62a4.6,4.6,0,0,1,.09-.71c0-.19.06-.49.1-.9s.07-.73.1-.95q-2.68-.21-3.3-.21c-1.79,0-2.81-.39-3.06-1.16,0,0,0,0,0,0s0,0,0,0A.66.66,0,0,1,0,162a1.26,1.26,0,0,1,.29-.78q.54-.66,2.52-.66h.87l.37,0,.37,0c.27,0,.69,0,1.24,0H6.9c0-.35.12-.89.2-1.61s.15-1.26.21-1.65a15,15,0,0,1,.74-4.05c.28-.55.58-.85.91-.9h.46c.49,0,.86.31,1.09.92a5.63,5.63,0,0,1,.35,2v.62c-.19,1.95-.37,3.51-.54,4.66.22,0,.54,0,.95,0l.91,0c.3,0,.74,0,1.3,0s1,0,1.3,0h1c0-.25.09-.63.19-1.16s.17-.91.23-1.15c.22-1.27.41-2.22.58-2.85A3.9,3.9,0,0,1,18,152.88.89.89,0,0,1,18.67,152.64ZM9.83,164c-.22,1.63-.37,2.77-.46,3.43h.79c.3,0,.74,0,1.3,0s1,0,1.3,0l.91,0c.41,0,.73,0,.95,0,.08-.77.23-1.92.45-3.46-.63,0-1.55,0-2.76,0h-.58l-.33,0a1.94,1.94,0,0,0-.29,0l-.27,0a1.53,1.53,0,0,0-.27,0A4.31,4.31,0,0,1,9.83,164Z"/><path class="cls-1" d="M37.08,179.17h-.33l-.32,0-.38,0-.38,0-.37,0h-.66a4.62,4.62,0,0,0-.7.07,4.84,4.84,0,0,1-.71.07h-.94a1.08,1.08,0,0,1-.25,0l-.21-.05h-.15a5,5,0,0,1-2.48-1,2.54,2.54,0,0,1-1-2.11v-.75l.05-.24v-1.17a16.23,16.23,0,0,1,.12-1.69,16,16,0,0,0,.12-1.6v-.61l0-.14v-.8l.05-.23v-.19c0-.06,0-.19,0-.38s0-.31,0-.37v-.28c0-.13,0-.32,0-.59s0-.46,0-.59l.05-.32v-.15c0-.09,0-.23,0-.42s0-.33,0-.42l0-1.46a3.76,3.76,0,0,0,.05-.75v-2c.06-.63.11-1.08.14-1.37a11.2,11.2,0,0,0,.1-1.26c0-.16,0-.43,0-.8S29,157,29,156.78a6.3,6.3,0,0,1,.33-1.73s0-.09,0-.17a.69.69,0,0,0,0-.16,4.31,4.31,0,0,1,.7-1.78,2.55,2.55,0,0,1,1.32-1.09c.28-.12.92-.34,1.92-.65A5.06,5.06,0,0,1,34.5,151h4.41l.47,0,.52,0a10.91,10.91,0,0,1,4.36.94,1.89,1.89,0,0,1,1,1,.78.78,0,0,1,.09.28,1.67,1.67,0,0,1,0,.52v.09a1.84,1.84,0,0,1-.24.61c-.4.85-1.55,1.27-3.42,1.27H38.44c-.53,0-1.23,0-2.11.09h-.09a3.53,3.53,0,0,1-.75,0h-.24l-.51,0c-.32,0-.55,0-.71,0s-.34,0-.37,0a3.68,3.68,0,0,0-.33,2.07v.42a2.74,2.74,0,0,0,0,.35,3.36,3.36,0,0,1,0,.4,2.24,2.24,0,0,0,.15.57h.09a5.52,5.52,0,0,0,.8,0h.09l1.17.05H36c.53,0,1.23,0,2.11.09a3.47,3.47,0,0,1,1.9.5,1.58,1.58,0,0,1,.77,1.43q0,2.49-3.7,2.77h-.1l-.14.05h-.37a.37.37,0,0,1-.15,0h0c-.94.1-1.47.14-1.6.14h-.8a7.51,7.51,0,0,0-1,.19.2.2,0,0,1-.14.05s0,0,0,0,0,0,0,.05l-.18.56a7.63,7.63,0,0,0,0,1.13v.33c0,.19,0,.47,0,.85s0,.64,0,.79,0,.3,0,.61,0,.55,0,.71c0,1.91.22,3.08.66,3.52l0,0,0,.05a.63.63,0,0,0,.28,0c.28,0,.74,0,1.38.07s1,.07,1.2.07h.84l.94,0c.78,0,1.36,0,1.74,0,2.06,0,3.1.66,3.1,2a3.14,3.14,0,0,1-.85,2.26,2.85,2.85,0,0,1-2.16.89l-.18,0-.19,0h-.33C38.44,179.16,37.86,179.17,37.08,179.17Z"/><path class="cls-1" d="M62.85,151.1a2.32,2.32,0,0,1,.82.69,1.49,1.49,0,0,1,.4,1,6,6,0,0,1-.47,1.83c-.12.28-.33.69-.61,1.24l-.61,1.2,0,0-.33.82c-.13.29-.28.62-.45,1s-.3.64-.4.82c-.25.54-.61,1.24-1.08,2.12s-.8,1.53-1,2l.94,1.48.84,1.33c.19.29.46.68.82,1.2s.65,1,.87,1.29.47.75.75,1.22a14.71,14.71,0,0,1,.71,1.32,2.93,2.93,0,0,1,.32.61c.13.28.22.5.29.65a3.4,3.4,0,0,0,.37.66,4.28,4.28,0,0,1,.38.66,5.83,5.83,0,0,1,.75,2.44,1.86,1.86,0,0,1-.43,1.2,1.26,1.26,0,0,1-1,.54,1.22,1.22,0,0,1-.37,0,4.2,4.2,0,0,1-1.88-1.5q-.13-.15-.45-.45l-.44-.45a14.37,14.37,0,0,1-1.08-1.31.63.63,0,0,1-.1-.12l-.09-.11a4.18,4.18,0,0,1-.31-.52,1.66,1.66,0,0,0-.3-.47C58.91,172.3,58,170.85,57,169c-.09.22-.41.87-.94,1.93q-2.3,4.41-3,5.87c-.06.12-.27.44-.61.94-.72.93-1.39,1.4-2,1.4a1.75,1.75,0,0,1-.47,0,1.19,1.19,0,0,1-.84-.43,2,2,0,0,1-.61-1.59,5.89,5.89,0,0,1,.09-.89,1.71,1.71,0,0,1,.12-.57,1.83,1.83,0,0,0,.11-.47,20.47,20.47,0,0,1,.94-2.3.4.4,0,0,1,.1-.18.55.55,0,0,0,.09-.19c.09-.25.27-.64.52-1.15s.42-.9.51-1.15c.35-.72.83-1.94,1.46-3.66l.16-.33.17-.33.56-1.31a2.24,2.24,0,0,1,.19-.33,3.31,3.31,0,0,0,.19-.38l-1.18-2.16c-.25-.44-.76-1.22-1.55-2.35-.22-.34-.51-.85-.89-1.52l-.66-1.2a3.59,3.59,0,0,0-.35-.61c-.2-.31-.34-.54-.42-.7a3.11,3.11,0,0,1-.23-.68,3.37,3.37,0,0,1-.12-.87,1.79,1.79,0,0,1,.4-1.22,1.43,1.43,0,0,1,1.15-.47,2.64,2.64,0,0,1,1.08.14c.22.13.42.25.61.38a1.4,1.4,0,0,1,.3.3l.21.26L53,154.3a.92.92,0,0,1,.12.16.61.61,0,0,0,.11.16l1.34,2c.7,1,1.23,1.85,1.57,2.42.13-.25.31-.64.54-1.18s.42-.92.54-1.17l.75-1.27A18.23,18.23,0,0,1,59.71,153c.09-.09.26-.3.51-.61a5.38,5.38,0,0,1,.61-.66,2.06,2.06,0,0,1,1.41-.7,1.33,1.33,0,0,1,.56.09Z"/><path class="cls-1" d="M71.16,180q-2.53,0-2.54-4.55v-1.79c0-.25,0-.66,0-1.22s0-1,0-1.22c0-.59,0-1,0-1.31v-1.65c0-.28,0-.71,0-1.29s0-1,0-1.29v-.33q0-.42,0-1.29c0-.58,0-1,0-1.29q.24-6.28.33-6.95a7,7,0,0,1,.94-3.05,2.49,2.49,0,0,1,1.17-.65l1.17-.29a5.49,5.49,0,0,1,1.46-.23h1.27c3.06,0,5.21.7,6.43,2.11a8.43,8.43,0,0,1,2.16,3.48,4.78,4.78,0,0,1,.09,1.12v.33a10.71,10.71,0,0,1-.28,2.21,8.23,8.23,0,0,1-1.41,3l-1,1.27a7.61,7.61,0,0,1-3.43,2.23,12.47,12.47,0,0,1-4.32.87c-.28,0-.42.79-.42,2.39,0,.5,0,1.06,0,1.69s0,1.3.09,2,.07,1.22.07,1.5c0,.13,0,.31,0,.56s0,.44,0,.57v.33c0,1.81-.52,2.72-1.55,2.72ZM73,163.45a6.33,6.33,0,0,0,2.39.28q3,0,4.79-3.61a3.77,3.77,0,0,0,.28-1.32,2.28,2.28,0,0,0-.77-1.71,3.57,3.57,0,0,0-1.86-.92c-1.75-.21-3-.33-3.61-.33a2.13,2.13,0,0,0-1,.15s0,.34-.07.93-.07.91-.07.94A4.86,4.86,0,0,1,73,159a12.64,12.64,0,0,0,0,1.27V161c0,.12,0,.31,0,.56s0,.44,0,.56v.9a1.62,1.62,0,0,0,.09.37A0,0,0,0,1,73,163.45Z"/><path class="cls-1" d="M95.38,179.17h-.33l-.33,0-.37,0-.38,0-.37,0h-.66a4.84,4.84,0,0,0-.71.07,4.62,4.62,0,0,1-.7.07h-.94a1.14,1.14,0,0,1-.26,0l-.21-.05H90a5,5,0,0,1-2.49-1,2.56,2.56,0,0,1-1-2.11v-.75l.05-.24v-1.17a16.23,16.23,0,0,1,.12-1.69c.07-.72.11-1.25.11-1.6v-.61l.05-.14v-.8l0-.23v-.19a3.43,3.43,0,0,1,0-.38,3.19,3.19,0,0,0,0-.37v-.28c0-.13,0-.32,0-.59s0-.46,0-.59l0-.32v-.15a3.75,3.75,0,0,1,0-.42,3.75,3.75,0,0,0,0-.42l0-1.46a4.72,4.72,0,0,0,.05-.75v-2c.06-.63.11-1.08.14-1.37a10.88,10.88,0,0,0,.09-1.26c0-.16,0-.43,0-.8a8.16,8.16,0,0,1,0-.85,6.3,6.3,0,0,1,.33-1.73.66.66,0,0,1,0-.17.56.56,0,0,0,0-.16,4.33,4.33,0,0,1,.71-1.78,2.49,2.49,0,0,1,1.31-1.09c.28-.12.93-.34,1.93-.65A5,5,0,0,1,92.8,151h4.41l.47,0,.52,0a11,11,0,0,1,4.36.94,1.87,1.87,0,0,1,1,1,.67.67,0,0,1,.1.28,1.81,1.81,0,0,1,0,.52v.09a1.73,1.73,0,0,1-.23.61c-.41.85-1.55,1.27-3.43,1.27H96.74c-.53,0-1.24,0-2.11.09h-.1a3.41,3.41,0,0,1-.75,0h-.23s-.21,0-.52,0-.55,0-.7,0a.86.86,0,0,0-.38,0,3.68,3.68,0,0,0-.33,2.07v.42a3.45,3.45,0,0,0,0,.35c0,.18,0,.31,0,.4a2.55,2.55,0,0,0,.14.57h.1a5.37,5.37,0,0,0,.79,0h.1l1.17.05h.28c.53,0,1.24,0,2.12.09a3.47,3.47,0,0,1,1.9.5,1.6,1.6,0,0,1,.77,1.43q0,2.49-3.71,2.77h-.09l-.14.05h-.38a.33.33,0,0,1-.14,0h0c-.93.1-1.47.14-1.59.14h-.8a7.51,7.51,0,0,0-1,.19A.2.2,0,0,1,91,165s0,0,0,0,0,0,0,.05l-.19.56a10,10,0,0,0,0,1.13v.33c0,.19,0,.47,0,.85s0,.64,0,.79,0,.3,0,.61,0,.55,0,.71c0,1.91.22,3.08.66,3.52l0,0,0,.05a.7.7,0,0,0,.28,0c.29,0,.75,0,1.39.07s1,.07,1.2.07h.84l.94,0c.78,0,1.36,0,1.74,0,2.06,0,3.09.66,3.09,2a3.18,3.18,0,0,1-.84,2.26,2.85,2.85,0,0,1-2.16.89l-.19,0-.19,0h-.32C96.74,179.16,96.16,179.17,95.38,179.17Z"/><path class="cls-1" d="M107.58,175.93c0-.25,0-.63,0-1.15s0-.89,0-1.15q0-1.12-.23-8.26c0-.09,0-.24,0-.44s0-.34,0-.4v-.85l0-.56v-1.83a6.25,6.25,0,0,0,0-1,1.34,1.34,0,0,0,0-.23c0-.13,0-.2,0-.24a8,8,0,0,1,0-1v-.14c0-.12,0-.33,0-.61s0-.5,0-.66a3.15,3.15,0,0,1,0-.37c0-.16,0-.27,0-.33a4.61,4.61,0,0,0,0-.85c0-2.44.25-4.09.76-5a3.06,3.06,0,0,1,1.5-1.08,7.2,7.2,0,0,1,2-.26,20.07,20.07,0,0,0,2.13-.16l.36-.07a2,2,0,0,1,.44-.07h2a2.48,2.48,0,0,1,.33,0,2.41,2.41,0,0,0,.33,0l1.41.14h.18q4.89.57,5.59,4.09a4,4,0,0,1,.09.66c0,.12,0,.34,0,.65s0,.53,0,.66l0,.09a11.39,11.39,0,0,1-1.6,5.31,5.19,5.19,0,0,0-.44.56,8.1,8.1,0,0,1-.54.66c-.07.09-.16.2-.28.33a2,2,0,0,0-.29.33l-.18.18-.19.19c.06.13.18.41.35.85a7.41,7.41,0,0,0,.45,1,3.14,3.14,0,0,1,.3.59c.11.26.2.46.26.58l.85,1.74c.5,1,.87,1.77,1.12,2.3a2.4,2.4,0,0,0,.26.47c.14.22.24.39.31.52a13.75,13.75,0,0,1,1.68,3.75,3.11,3.11,0,0,1,.19,1,6.06,6.06,0,0,1,0,.89v.33a4,4,0,0,1-.09.7v.1a2.8,2.8,0,0,1-.71,1.5,2.28,2.28,0,0,1-1.5.66,2.64,2.64,0,0,1-1.13-.33,3,3,0,0,1-1.22-1.18l-.65-1.31a8.69,8.69,0,0,1-.47-1.08c0-.13-.12-.44-.26-.94a7.26,7.26,0,0,0-.4-1.13,20.57,20.57,0,0,1-1.08-2.48c-.06-.13-.14-.32-.24-.59a5.68,5.68,0,0,0-.23-.59l-.59-.91a11.08,11.08,0,0,1-.68-1.2,18.18,18.18,0,0,0-1.12-1.92,2,2,0,0,0-.57-.61.14.14,0,0,1-.09-.05l-.09-.1a.58.58,0,0,0-.17,0l-.16.05a.87.87,0,0,1-.33.05,10.14,10.14,0,0,1-1.36.23l-.71.14a6.22,6.22,0,0,1-1,.05v.09s0,.11,0,.24a2,2,0,0,0,0,.33c0,1,0,2.55.1,4.64s.09,3.63.09,4.6a.87.87,0,0,1-.05.28,1.3,1.3,0,0,0,0,.29v.18a6.18,6.18,0,0,1-1,3.85,1,1,0,0,1-.84.33l-.17,0-.16,0Q107.57,180.4,107.58,175.93Zm4.32-16.85c0,.07-.09,1-.28,2.91v0h0a8,8,0,0,0,.89.09h.28a25.36,25.36,0,0,0,4-.93q3.28-1.32,3.38-4.18V157a3.29,3.29,0,0,0-1.13-2.3,6.71,6.71,0,0,0-2-.66,9.4,9.4,0,0,0-1.65-.14h-1.55a4.09,4.09,0,0,0-1.73.47v.24c0,.19,0,.46,0,.82s0,.62,0,.77,0,.33,0,.59,0,.46,0,.59,0,.28,0,.47,0,.32,0,.42l0,.56Z"/><path class="cls-1" d="M131,168.89c0-.47,0-1.14-.1-2s-.09-1.54-.09-2v-1.17c0-.59,0-1,0-1.36v-.47a5.67,5.67,0,0,1-.05-.84v-1.32a22.8,22.8,0,0,1,.14-2.49,9.47,9.47,0,0,0,.15-2,9,9,0,0,1,.14-1.92q.51-2.82,2.25-2.82h.19c1.06.09,1.59,1.27,1.59,3.52v4.32c-.09,1.75-.14,3.47-.14,5.16v.19c0,.44,0,1.07.12,1.88s.12,1.42.12,1.83v2.63c0,.25,0,.65.07,1.22s.07,1,.07,1.27a11.37,11.37,0,0,1,0,1.22c0,.06,0,.17,0,.32a3.19,3.19,0,0,0,0,.33,2,2,0,0,1,0,.31,2,2,0,0,0,0,.3,9.1,9.1,0,0,1-.33,1.65,2.61,2.61,0,0,1-.14.32.66.66,0,0,0-.1.29c-.37,1.12-.75,1.78-1.12,2a1.17,1.17,0,0,1-.66.23,1.57,1.57,0,0,1-1.27-.8,2.78,2.78,0,0,1-.51-1.83V172.6c-.1-1.59-.14-2.41-.14-2.44Zm3.47-24.73a1.94,1.94,0,0,1,1.41,2,2.64,2.64,0,0,1-.14.8,3.46,3.46,0,0,1-.94,1.5,2.48,2.48,0,0,1-2.3.52,2.64,2.64,0,0,1-1.13-.8,2,2,0,0,1-.47-1.32,2.28,2.28,0,0,1,.8-1.78,4.13,4.13,0,0,1,1.88-.94,2.17,2.17,0,0,1,.51-.05A1.3,1.3,0,0,1,134.48,144.16Z"/><path class="cls-1" d="M147.67,152.47h-1c-.56,0-1,0-1.26,0a.43.43,0,0,0-.15.05h-.09a8.16,8.16,0,0,0-.05,1v.33l0,.52v1.12c0,.19,0,.47,0,.85s0,.66,0,.84V158a6.38,6.38,0,0,0,.14,1.59c.16.28.56.46,1.22.52h.19l.19,0,.23,0a.62.62,0,0,1,.19,0,.58.58,0,0,0,.19,0,1.51,1.51,0,0,1,.28.05,1.38,1.38,0,0,0,.28,0l.19,0a.42.42,0,0,0,.14,0,2.54,2.54,0,0,0,.66,0l.16,0,.16,0c1.19.15,2.23.33,3.1.51a1.34,1.34,0,0,0,.42.1,3.32,3.32,0,0,1,1.6.8,1.6,1.6,0,0,1,.38,1,2.22,2.22,0,0,1-.66,1.64c-.6.66-1.72,1-3.38,1H144a1.66,1.66,0,0,0-.38.09.33.33,0,0,1,0,.14,2.34,2.34,0,0,0,0,.52v.52c0,.06,0,.14,0,.25a1.62,1.62,0,0,0,0,.21v.94a3.82,3.82,0,0,1,0,.43,3.57,3.57,0,0,0,0,.42v2.81a5.84,5.84,0,0,0,.18,1.74v.05s0,0,0,0l.1.05a6,6,0,0,0,2.3.52l.23,0,.24,0a6,6,0,0,1,.84,0l.47.05h1.27l.61,0,.65,0h1.55a6.83,6.83,0,0,1,1.27.14h.09a2.68,2.68,0,0,1,1.27.47,2.74,2.74,0,0,1,.66,2,1,1,0,0,1-.31.73,2.34,2.34,0,0,1-.58.44,4.82,4.82,0,0,1-.87.31l-.73.21a7.25,7.25,0,0,1-1.64.19c-.63,0-1.48,0-2.56-.07s-1.92-.07-2.51-.07a1.63,1.63,0,0,0-.28,0,1.69,1.69,0,0,1-.28,0h-1.79a7.38,7.38,0,0,1-3-.75,2.5,2.5,0,0,1-.94-2.34,28.63,28.63,0,0,1,.24-4,10.69,10.69,0,0,0,0-1.13v-.23l.14-5.87.05-.33c0-.25,0-.66,0-1.22s0-1,0-1.22v-1.31c0-.1,0-.24,0-.45s0-.35,0-.45v-.46a2,2,0,0,1,0-.31c0-.14,0-.24,0-.3v-.8a1.91,1.91,0,0,1,0-.28c0-.13,0-.22,0-.29a5.73,5.73,0,0,0,.09-.84c0-.16,0-.4.05-.73s.05-.57.05-.73v-.7a.42.42,0,0,1,0-.14.42.42,0,0,0,0-.14,1.12,1.12,0,0,1,0-.19c0-.09,0-.17,0-.23v-.47a9.25,9.25,0,0,1,1.27-5,3.85,3.85,0,0,1,3-1h.93a14.06,14.06,0,0,1,1.67.14A13.94,13.94,0,0,0,149,147l.14,0,.14,0c1.35,0,3.41.15,6.2.37a9.06,9.06,0,0,1,1.2.14,2.41,2.41,0,0,1,.89.45,1.15,1.15,0,0,1,.44,1,1.61,1.61,0,0,1-.23.94,3.67,3.67,0,0,1-2.44,1.78l-1,.29-.71.14-.8.14h-.14a4.33,4.33,0,0,1-.79.09h-.8l-.66,0-.66,0a10.56,10.56,0,0,0-1.17.05h-.23A2.94,2.94,0,0,1,147.67,152.47Z"/><path class="cls-1" d="M174.14,167.58a2.39,2.39,0,0,0-.37-1.6l-.05,0a2.36,2.36,0,0,1-.33-.24c-.16-.12-.28-.22-.38-.28a30.74,30.74,0,0,0-2.76-1.92c-.16-.1-.47-.31-.92-.64a8.54,8.54,0,0,0-1.06-.68c-1-.56-1.65-.89-1.87-1l-1.36-.52h-.29l-.11,0-.12,0a10.07,10.07,0,0,0-.45,1.87c-.11.72-.18,1.28-.21,1.67s-.05,1.14-.05,2.25v2c-.09,2.81-.26,5.65-.51,8.49a1.34,1.34,0,0,1-.49.87,1.41,1.41,0,0,1-1,.4,1.47,1.47,0,0,1-1.26-.87,3.35,3.35,0,0,1-.52-1.76v-.94c0-.12,0-.28,0-.46s0-.35,0-.47,0-.49,0-.9,0-.72,0-.94v-1.4c0-.16,0-.39,0-.71s0-.54,0-.7,0-.71,0-1.29,0-1,0-1.29,0-.8,0-1.46,0-1.14.05-1.45,0-.73.07-1.34.07-1.07.07-1.39,0-.46,0-.84,0-.71,0-1,0-.57.07-.82.07-.38.1-.68a5.66,5.66,0,0,1,.09-.64,3.48,3.48,0,0,0,.05-.65,3.85,3.85,0,0,1,0-.66c.19-2,.86-3.14,2-3.33h.33a2,2,0,0,1,1.27.4,4.31,4.31,0,0,1,1,1.24l.58,1,.71.89a4.93,4.93,0,0,1,.75.89,4.59,4.59,0,0,0,.75.89,18,18,0,0,1,1.78,1.6,2.92,2.92,0,0,1,.26.3,1.61,1.61,0,0,0,.35.35,4.57,4.57,0,0,0,.9.54,6.13,6.13,0,0,1,.89.54,4.25,4.25,0,0,0,.56.38l.05.05,0,0h.32a.33.33,0,0,0,.14,0l0-.05.05,0a17.91,17.91,0,0,0,.61-3.59,29.24,29.24,0,0,1,.47-3.45c.47-1.25,1.12-1.88,2-1.88a2.1,2.1,0,0,1,1.5.54,1.89,1.89,0,0,1,.57,1.44c.09.56.14.86.14.89v.8c0,.21,0,.57.07,1.08s.07.86.07,1.07v5.12c0,.13,0,.31,0,.56s0,.43,0,.52a26.62,26.62,0,0,1,.14,2.82v1.41c0,.15,0,.39,0,.7s0,.55,0,.7c0,.32,0,.79,0,1.41s-.05,1.1-.05,1.41a24.26,24.26,0,0,1-.79,5.54c-.26,2.06-.88,3.1-1.88,3.1a2.13,2.13,0,0,1-1.08-.43,2.15,2.15,0,0,1-1-1.36c-.15-.5-.25-.81-.28-.94a8.62,8.62,0,0,1,0-1.26V177c0-.25,0-.64,0-1.15s-.05-.9-.05-1.15v-.94c0-.22,0-.57,0-1.06s0-.83,0-1,0-.61,0-1.08,0-.83,0-1.08Z"/><path class="cls-1" d="M192.73,173.92l1.36.23h.14a2.36,2.36,0,0,0,.8-.14,7.75,7.75,0,0,1,1.36-.14c1.66,0,2.49.67,2.49,2a6.66,6.66,0,0,1-.71,2.63,5,5,0,0,1-2.48,2.16,4.28,4.28,0,0,1-2.12.56,7.39,7.39,0,0,1-3-.71,8.73,8.73,0,0,1-1.5-1.12,11.63,11.63,0,0,1-3.9-5.28,19.84,19.84,0,0,1-1.41-7.49,19.33,19.33,0,0,1,.14-2.3.58.58,0,0,0,0-.3v-.31a16.38,16.38,0,0,1,.71-2.91,19.7,19.7,0,0,1,3.56-6.34,5.13,5.13,0,0,1,.5-.51,5.9,5.9,0,0,0,.54-.57,28,28,0,0,1,2.34-2.48,5.6,5.6,0,0,1,1.55-.8,3.68,3.68,0,0,1,1-.24h.18c.07,0,.33.05.8.14h.19l.66.15a1.89,1.89,0,0,1,1.12.72,2,2,0,0,1,.47,1.29v.43a3.1,3.1,0,0,1-.3,1.24,2.7,2.7,0,0,1-.52.73,9.47,9.47,0,0,1-1,.7,11.84,11.84,0,0,1-1.22.71,8.7,8.7,0,0,0-3.92,4.55,17.74,17.74,0,0,0-1.43,7.13,8.66,8.66,0,0,0,1,3.9A3.92,3.92,0,0,0,192.73,173.92Z"/><path class="cls-1" d="M211.79,179.17h-.33l-.33,0-.38,0-.37,0-.38,0h-.66a4.73,4.73,0,0,0-.7.07,4.73,4.73,0,0,1-.7.07H207a1.05,1.05,0,0,1-.26,0l-.21-.05h-.14a5,5,0,0,1-2.49-1,2.53,2.53,0,0,1-1-2.11v-.75l0-.24v-1.17a16.23,16.23,0,0,1,.12-1.69,16,16,0,0,0,.12-1.6v-.61l0-.14v-.8l0-.23v-.19c0-.06,0-.19,0-.38s0-.31,0-.37v-.28c0-.13,0-.32,0-.59s0-.46,0-.59l0-.32v-.15q0-.13,0-.42c0-.19,0-.33,0-.42l0-1.46a4.94,4.94,0,0,0,0-.75v-2c.07-.63.11-1.08.15-1.37a10.88,10.88,0,0,0,.09-1.26c0-.16,0-.43,0-.8s0-.66,0-.85a6.22,6.22,0,0,1,.32-1.73.86.86,0,0,1,0-.17c0-.07,0-.13,0-.16a4.31,4.31,0,0,1,.7-1.78,2.55,2.55,0,0,1,1.32-1.09c.28-.12.92-.34,1.92-.65a5.06,5.06,0,0,1,1.22-.19h4.42l.47,0,.51,0A11,11,0,0,1,219,152a1.9,1.9,0,0,1,1,1,.78.78,0,0,1,.09.28,1.67,1.67,0,0,1,0,.52v.09a2,2,0,0,1-.23.61c-.41.85-1.55,1.27-3.43,1.27h-3.33c-.54,0-1.24,0-2.12.09h-.09a3.53,3.53,0,0,1-.75,0H210s-.21,0-.52,0-.55,0-.71,0a.83.83,0,0,0-.37,0,3.68,3.68,0,0,0-.33,2.07v.42c0,.07,0,.18,0,.35a3.94,3.94,0,0,1,0,.4,2.07,2.07,0,0,0,.14.57h.09a5.61,5.61,0,0,0,.8,0h.09l1.18.05h.28c.53,0,1.23,0,2.11.09a3.44,3.44,0,0,1,1.9.5,1.59,1.59,0,0,1,.78,1.43q0,2.49-3.71,2.77h-.1l-.14.05h-.37a.33.33,0,0,1-.14,0h-.05c-.94.1-1.47.14-1.6.14h-.79a7.75,7.75,0,0,0-1,.19.18.18,0,0,1-.14.05s0,0,0,0,0,0,0,.05l-.19.56a9.37,9.37,0,0,0,0,1.13v.33c0,.19,0,.47,0,.85s0,.64,0,.79,0,.3,0,.61,0,.55,0,.71c0,1.91.22,3.08.66,3.52l0,0,.05.05a.63.63,0,0,0,.28,0c.28,0,.74,0,1.39.07s1,.07,1.19.07h.85l.94,0c.78,0,1.36,0,1.73,0,2.07,0,3.1.66,3.1,2a3.18,3.18,0,0,1-.84,2.26,2.88,2.88,0,0,1-2.16.89l-.19,0-.19,0h-.33C213.15,179.16,212.57,179.17,211.79,179.17Z"/><path class="cls-1" d="M222.21,176c0-1.19.34-1.83,1-1.93l.16,0,.17,0h0a2.9,2.9,0,0,1,1.93.84l.37.38a5.79,5.79,0,0,0,.66.51,6.94,6.94,0,0,1,.66.52,4.48,4.48,0,0,0,2.49.84,5.17,5.17,0,0,0,3.82-1.59,5.38,5.38,0,0,0,1.57-3.94V171a1,1,0,0,0,0-.26,1.14,1.14,0,0,1,0-.26,3.16,3.16,0,0,0-.14-.56,8.23,8.23,0,0,0-.47-.9,7.87,7.87,0,0,0-.85-.79l-.75-.66a13,13,0,0,0-2-1.13c-.88-.4-1.43-.67-1.65-.8a6.91,6.91,0,0,1-2.65-1.71,4.13,4.13,0,0,1-.91-2.88v-.38a7.56,7.56,0,0,1,.25-2,8.3,8.3,0,0,1,.5-1.43,14.61,14.61,0,0,1,.86-1.43,13.24,13.24,0,0,0,.78-1.25,15,15,0,0,1,2-2.25,7.49,7.49,0,0,1,4.37-2,4.61,4.61,0,0,1,1.94.42,5.55,5.55,0,0,1,1.32.78c.26.23.68.63,1.24,1.19a4.6,4.6,0,0,1,1.22,2.3v.1a2.2,2.2,0,0,1-.44,1.31,1.33,1.33,0,0,1-1.11.61l0,0s0,0,0,0,0,0-.05,0a1.71,1.71,0,0,1-1.12-.47,2.36,2.36,0,0,1-.64-.51,3,3,0,0,0-.77-.61,2.28,2.28,0,0,0-1.13-.24h-.14a5.74,5.74,0,0,0-2.51.42,5.35,5.35,0,0,0-1.67,1.55,4.08,4.08,0,0,0-.7,1.74c0,.06,0,.15,0,.26a1.62,1.62,0,0,0,0,.21v.37c0,.07.13.36.28.9a3,3,0,0,0,1,1.47,9.15,9.15,0,0,0,2,1.27c.85.43,1.39.71,1.64.87a9.16,9.16,0,0,0,.85.49c.37.21.66.36.84.45a14.1,14.1,0,0,1,1.13.94l.82.58c.42.3.76.56,1,.78a3.94,3.94,0,0,1,.66.75,3.83,3.83,0,0,1,.89,2.11s0,.1,0,.19a1.12,1.12,0,0,0,0,.24V171a7.6,7.6,0,0,1-2.58,5.35,11.48,11.48,0,0,1-1.83,1.69s-.05,0-.05,0l-.09,0a8.31,8.31,0,0,0-.75.59,9.39,9.39,0,0,1-.75.58,9.29,9.29,0,0,1-4.37,1.22,12.29,12.29,0,0,1-4.41-1.22l-.33-.18a.9.9,0,0,0-.28-.14,7.29,7.29,0,0,1-1.55-1.08C222.69,177.37,222.21,176.75,222.21,176Z"/><path d="M255.82,179.07h-.33a2.93,2.93,0,0,0-.37,0l-.37,0a26.68,26.68,0,0,0-4.05.82,4.86,4.86,0,0,1-1.61.29h-.37c-1.93-.16-3.21-.81-3.84-1.94a2.61,2.61,0,0,1-.29-1.24v-.16a11.62,11.62,0,0,1,.33-2.4,16.51,16.51,0,0,0,.13-2.14c0-.56,0-1.39.08-2.52s.05-2,.08-2.56l.21-5.08q0-.37.06-1.14c0-.51.06-.89.06-1.13s0-.34,0-.58,0-.44,0-.58c.11-1.3.38-2.08.79-2.35a1.54,1.54,0,0,1,.82-.34h.05a1.35,1.35,0,0,1,.88.29,2,2,0,0,1,.56,1,7.44,7.44,0,0,1,.25,1c0,.2.08.6.16,1.17.09.91.13,1.39.13,1.45v1.24s0,.07,0,.14a.5.5,0,0,0,0,.15,3.3,3.3,0,0,0,0,.39c0,.18,0,.31,0,.39v.12c0,.12,0,.27,0,.46a4,4,0,0,0,0,.45c0,.17,0,.82,0,1.94s0,1.78,0,2v1.19a1.56,1.56,0,0,0,0,.33c0,.14,0,.24,0,.29v.21s0,.1,0,.21a1.25,1.25,0,0,0,0,.24v1.39a1.18,1.18,0,0,1,0,.39v1.07a5.17,5.17,0,0,0,0,.71v.08c0,.05,0,.16,0,.33a2.48,2.48,0,0,1,0,.33h1.12l.49,0c.22,0,.38,0,.46,0a7.81,7.81,0,0,0,.93-.07c.4,0,.69-.06.89-.06a7.26,7.26,0,0,0,1,0v0h0c.6,0,1.07-.08,1.4-.08.14,0,.33,0,.58,0l.58,0c2.25,0,3.38.58,3.38,1.73a2.37,2.37,0,0,1-.8,1.84,2.84,2.84,0,0,1-2,.72A12.79,12.79,0,0,1,255.82,179.07Z"/><path d="M269,156.73h.25a2.66,2.66,0,0,1,.82.16,5,5,0,0,1,2,1,23,23,0,0,1,3.06,2.48,17.21,17.21,0,0,1,2.27,4,5.92,5.92,0,0,1,.66,2.68v.12a13,13,0,0,1-.25,2.61c0,.13-.15.53-.37,1.19a38.4,38.4,0,0,1-2.27,5,6.66,6.66,0,0,1-1.65,2.15l-.91.74a4.73,4.73,0,0,1-2.77,1.36h-.2a1.29,1.29,0,0,1-.25,0l-.25,0a4.64,4.64,0,0,1-2.6-1c-.22-.16-.55-.44-1-.82A9.68,9.68,0,0,1,264,177l-1.24-1.78a8.58,8.58,0,0,1-1.28-4.37v-.13c0-.08,0-.21,0-.39a3.3,3.3,0,0,0,0-.39c0-.08,0-.22,0-.41s0-.33,0-.42a17.94,17.94,0,0,1,.86-4.33l.42-1.2.49-1.12a14.77,14.77,0,0,1,2.93-4.7A4.22,4.22,0,0,1,269,156.73Zm2.85,17.92a4.47,4.47,0,0,0,1.59-1.2,12.82,12.82,0,0,0,1.21-2,12.68,12.68,0,0,0,1-4.17,4.76,4.76,0,0,0-.48-2.11,5.79,5.79,0,0,0-.91-1.46c-.29-.32-.73-.75-1.34-1.31a4,4,0,0,0-2.52-1.19c-1.46,0-2.83,1.26-4.13,3.8a7.07,7.07,0,0,0-.62,1.85l-.06.44c0,.15,0,.31,0,.49s0,.33,0,.44v1.44c0,.11.05.26.08.44a2.3,2.3,0,0,0,.09.39s0,.16,0,.41a3.16,3.16,0,0,0,.08.54,6.91,6.91,0,0,0,2.56,3.92l.14,0a.41.41,0,0,0,.15,0A7.44,7.44,0,0,0,271.81,174.65Z"/><path d="M297.58,153.34c.68,0,1,.55,1,1.65a12.11,12.11,0,0,1-.58,3.8c-.52,1.32-1.16,3.3-1.9,5.93s-1.28,4.41-1.61,5.34c-.06.11-.43,1.34-1.12,3.68L293,175l-.37,1.16a5.08,5.08,0,0,1-.41,1,3,3,0,0,1-.33.53,3.24,3.24,0,0,0-.29.42,3.25,3.25,0,0,1-1.12,1.32,2.68,2.68,0,0,1-.45.21l-.17,0-.16,0h-.17a2.24,2.24,0,0,1-1.85-.87c-.06-.08-.22-.35-.48-.79a10.34,10.34,0,0,0-.64-1,11.68,11.68,0,0,0-1.24-1.69,4,4,0,0,1-.47-.81c-.18-.37-.3-.59-.35-.68a26.91,26.91,0,0,1-1.66-3.14c-.05-.22-.29-.9-.7-2s-.7-2-.87-2.66-.61-1.67-1.11-2.94-.84-2.18-1-2.76a3.45,3.45,0,0,1-.29-1.45v-.24a2,2,0,0,1,.66-1.45l.62-.37a4.9,4.9,0,0,1,1.11-.41.7.7,0,0,1,.42.12,1.35,1.35,0,0,1,.7.43,3.84,3.84,0,0,1,.47.85,6.08,6.08,0,0,0,.35.74c.14.25.31.62.52,1.1s.35.79.43.93a7.63,7.63,0,0,1,.36,1.09c.12.48.21.82.26,1a9.05,9.05,0,0,0,1,2.4,10.19,10.19,0,0,1,.44,1.09,11.12,11.12,0,0,0,.43,1.1c.39.77.74,1.43,1.07,2s.47.87.5.95c.47,1.15.76,1.87.87,2.15a1.57,1.57,0,0,0,.16.33,1.74,1.74,0,0,1,.17.33c.13-.42.32-1,.55-1.82s.42-1.41.56-1.82c.33-.93.58-1.65.75-2.15a5.27,5.27,0,0,1,.37-1.07c.25-.63.53-1.44.86-2.44q2.44-6.6,2.77-7.39c.11-.25.28-.58.52-1s.39-.72.47-.89C296.57,153.7,297,153.34,297.58,153.34Z"/><path d="M302.12,173.49a34.26,34.26,0,0,0-.62-6.44v-.17a3.39,3.39,0,0,0,0-.35,3.7,3.7,0,0,1-.06-.41,2.16,2.16,0,0,1,0-.35v-1.12a1.49,1.49,0,0,0,0-.26c0-.13,0-.22,0-.27a2.85,2.85,0,0,0,0-.37c0-.17,0-.29,0-.38a7.87,7.87,0,0,0,0-1l-.12-.78c-.06-.3-.11-.73-.17-1.28,0-.08,0-.19,0-.33s0-.23,0-.29v-.41a1.83,1.83,0,0,0,0-.21,1.83,1.83,0,0,1,0-.21s0-.13,0-.22a1.06,1.06,0,0,1,0-.23,7.17,7.17,0,0,1,0-1V156.4a4.41,4.41,0,0,1,.29-1.37,2.34,2.34,0,0,1,1.28-1.86,11.6,11.6,0,0,1,2.06-.66,14.17,14.17,0,0,1,4.34-.66h.45l.6,0c.26,0,.46,0,.6,0h.2a8.59,8.59,0,0,1,2.57.38,2,2,0,0,1,1.48,1.85v.33a2.79,2.79,0,0,1-1.69,2.19h-.08a1,1,0,0,1-.33.13c-.44,0-.76.08-.95.08l-.25,0-.25,0H307.4a6.41,6.41,0,0,0-2.06.25h0c.05.27.11.65.18,1.13s.15.92.23,1.32a9.2,9.2,0,0,0,.29,1.1,1.32,1.32,0,0,0,.06.29c0,.13.08.23.1.29l.13.61.14,0,.15,0a2.48,2.48,0,0,1,.45,0h1.36c.11,0,.31,0,.58,0l.62,0h.62c.11,0,.46.08,1,.15a8.47,8.47,0,0,1,1.31.22,2.07,2.07,0,0,1,.86.56,1.54,1.54,0,0,1,.44,1.14,1.91,1.91,0,0,1,0,.2,1,1,0,0,0,0,.17v.08a2.38,2.38,0,0,1-.61,1.4,3.19,3.19,0,0,1-1.28.62h-.09a2.78,2.78,0,0,1-.41.15,3.61,3.61,0,0,1-.54.14,6.39,6.39,0,0,1-.68.09l-.52,0,0,0c-.13,0-.33,0-.6.08l-.59.08h-.13l-.29,0a2.06,2.06,0,0,1-.33,0,11.76,11.76,0,0,0-1.77.38V168a3.3,3.3,0,0,0,0,.39c0,.18,0,.31,0,.39s0,.17,0,.33,0,.29,0,.38,0,.2,0,.35,0,.25,0,.31,0,.23,0,.45,0,.39,0,.5a11.68,11.68,0,0,0,.29,2.52.56.56,0,0,1,0,.26v.27a5.35,5.35,0,0,0,.21,1.08l0,.08v.08l1.78-.23c.79-.09,1.53-.19,2.21-.29s1.28-.19,1.83-.3a6.33,6.33,0,0,1,.87-.09,3.54,3.54,0,0,1,1.94.52,1.67,1.67,0,0,1,.83,1.51.58.58,0,0,1,0,.1.22.22,0,0,0,0,.1,5,5,0,0,1-.21.91,2.08,2.08,0,0,1-.39.64,1.4,1.4,0,0,1-.68.43l-1.57.44c-.75.21-1.32.35-1.74.43l-1.32.31a8.29,8.29,0,0,1-1.9.27h-.91l-.66,0c-2,0-3.26-.48-3.76-1.45a3.19,3.19,0,0,1-.29-.78,3.8,3.8,0,0,1-.33-1.32,3.25,3.25,0,0,0-.08-.6,4.33,4.33,0,0,1-.08-.64,2.59,2.59,0,0,1,0-.58v-1.24Z"/><path d="M331.31,150.7a6.29,6.29,0,0,1,3.62,1.88,5.29,5.29,0,0,1,1.59,3.9c0,.38-.14,1.47-.42,3.26a4.75,4.75,0,0,1-1.09,2.39,6.68,6.68,0,0,1-2,1.74l-.73.35-.72.35a4.16,4.16,0,0,0,.77,1.57,10,10,0,0,1,.8,1.28,20.24,20.24,0,0,1,1.3,2.69c.51,1.21.83,2,1,2.27a33.66,33.66,0,0,1,1.2,3.34,1.84,1.84,0,0,1,0,.54,5.31,5.31,0,0,1-.31,1.82c-.21.57-.53.86-1,.86A2.89,2.89,0,0,1,333,178a11.57,11.57,0,0,1-1.24-2c-.06-.08-.22-.34-.5-.78a11,11,0,0,1-.58-1c-.13-.34-.35-.83-.66-1.49s-.52-1.19-.66-1.57a12.53,12.53,0,0,0-.95-1.86,9.66,9.66,0,0,0-1.86-2.56,7.23,7.23,0,0,0-1.65-1.16c-.11,1.6-.16,2.81-.16,3.64,0,.27,0,.7,0,1.28s0,1,0,1.28q0,8.5-2.23,9.87a1.46,1.46,0,0,1-.66.16,1.55,1.55,0,0,1-1.26-.53,2.11,2.11,0,0,1-.5-1c0-.33-.07-.88-.1-1.65q-.33-7.59-.33-7.8c0-.22,0-.56,0-1s0-.8,0-1v-.7q0-2.47.23-7.06t.22-7a1.91,1.91,0,0,1,.33-1.32c.14-.33.89-.72,2.23-1.16a16.52,16.52,0,0,1,5.74-1A18.17,18.17,0,0,1,331.31,150.7Zm-4.95,11.35A6.26,6.26,0,0,0,329.6,161a5.83,5.83,0,0,0,2.29-2.19,6.11,6.11,0,0,0,.62-2,2.84,2.84,0,0,0-2-2.6,6,6,0,0,0-2.23-.33,8.41,8.41,0,0,0-4.42,1.65q-.12,1.49-.12,3a23.24,23.24,0,0,0,.16,2.52c.08.47.15.72.21.74A5.91,5.91,0,0,0,326.36,162.05Z"/><path d="M355.8,157.59h-.58a2.21,2.21,0,0,1-.37,0,2,2,0,0,0-.33,0,.69.69,0,0,1-.53-.21.51.51,0,0,1-.25,0,12,12,0,0,0-3.18-.74,2.47,2.47,0,0,0-2.36,1.53,6.92,6.92,0,0,0-.49,2.52v1.32a6.89,6.89,0,0,0,1,2.56,3.35,3.35,0,0,0,.51.6,3.86,3.86,0,0,1,.56.64,13.39,13.39,0,0,1,2.85,7.93,6,6,0,0,1-2.72,5.4l-.58.29a4.72,4.72,0,0,1-2.07.67h-1.4l-.54,0-.54,0a6.37,6.37,0,0,1-.72-.06l-.56-.06a8.17,8.17,0,0,1-1.28-.29.83.83,0,0,0-.2-.08,4.62,4.62,0,0,1-2.23-1.36,2.7,2.7,0,0,1-.87-1.66,1.42,1.42,0,0,1,.21-.78,1.66,1.66,0,0,1,1.73-1.16,2.37,2.37,0,0,1,.95.19,6.55,6.55,0,0,1,1,.51,6,6,0,0,0,.72.42A4.19,4.19,0,0,0,345,176h1.12a3,3,0,0,0,2.27-1.69l.12-.54a4.63,4.63,0,0,0,0-.74,3.36,3.36,0,0,0,0-.4c0-.17,0-.31,0-.39a5.19,5.19,0,0,0-.29-1.16v0a5.52,5.52,0,0,0-1-1.69,38,38,0,0,0-2.48-3.18,5.33,5.33,0,0,1-1.77-3.8q0-4.12,1.65-6.23a7.62,7.62,0,0,1,2.93-2.28,10.56,10.56,0,0,1,3.55-1h1.2a14.14,14.14,0,0,1,1.57.13,5.79,5.79,0,0,1,1.24.35,3.21,3.21,0,0,1,1.2.8,1.6,1.6,0,0,1,.24.36,2.59,2.59,0,0,0,.21.31,2.48,2.48,0,0,1,.29,1.11A1.65,1.65,0,0,1,355.8,157.59Z"/><path d="M239.75,93.33h-7.21V63h6.56a7.26,7.26,0,0,1,5,1.7,5.85,5.85,0,0,1,1.65,2.43,8.56,8.56,0,0,1,.56,3.21v2.82a6.08,6.08,0,0,1-1.74,4.69c1.6,1.12,2.39,3,2.39,5.46V86a8.06,8.06,0,0,1-.56,3.17,5.85,5.85,0,0,1-1.65,2.43A7.15,7.15,0,0,1,239.75,93.33ZM237.32,75.8h1.78a2.56,2.56,0,0,0,1.78-.52,3,3,0,0,0,.65-2.17V70.29a2.93,2.93,0,0,0-.61-2.09,2.76,2.76,0,0,0-1.82-.47h-1.78Zm0,12.76h2.43a2.68,2.68,0,0,0,1.82-.48,2.73,2.73,0,0,0,.61-2V83.26a2.93,2.93,0,0,0-.65-2.17,2.61,2.61,0,0,0-1.78-.52h-2.43Z"/><path d="M249.82,93.33V63h4.77V93.33Z"/><path d="M257.41,93.33l7.9-25.56h-7.9V63h14.45L264,88.52h7.9v4.81Z"/><path d="M283.8,77.36l6.12,16H284.8l-3.69-9.72-1.65,3.78v5.94h-4.78V63h4.78V75.28L284.75,63h5.17Z"/><path d="M303.33,93.33l-.87-4.81H297l-.87,4.81h-4.86L297.34,63h4.77l6.08,30.38Zm-5.51-9.59h3.82l-1.91-10.89Z"/><path d="M310.53,93.33V63h4.78V93.33Z"/><path d="M329.67,93.33l-.87-4.81h-5.47l-.86,4.81h-4.86L323.68,63h4.78l6.07,30.38Zm-5.51-9.59H328l-1.91-10.89Z"/><path d="M239.75,93.33h-7.21V63h6.56a7.26,7.26,0,0,1,5,1.7,5.85,5.85,0,0,1,1.65,2.43,8.56,8.56,0,0,1,.56,3.21v2.82a6.08,6.08,0,0,1-1.74,4.69c1.6,1.12,2.39,3,2.39,5.46V86a8.06,8.06,0,0,1-.56,3.17,5.85,5.85,0,0,1-1.65,2.43A7.15,7.15,0,0,1,239.75,93.33ZM237.32,75.8h1.78a2.56,2.56,0,0,0,1.78-.52,3,3,0,0,0,.65-2.17V70.29a2.93,2.93,0,0,0-.61-2.09,2.76,2.76,0,0,0-1.82-.47h-1.78Zm0,12.76h2.43a2.68,2.68,0,0,0,1.82-.48,2.73,2.73,0,0,0,.61-2V83.26a2.93,2.93,0,0,0-.65-2.17,2.61,2.61,0,0,0-1.78-.52h-2.43Z"/><path d="M249.82,93.33V63h4.77V93.33Z"/><path d="M257.41,93.33l7.9-25.56h-7.9V63h14.45L264,88.52h7.9v4.81Z"/><path d="M283.8,77.36l6.12,16H284.8l-3.69-9.72-1.65,3.78v5.94h-4.78V63h4.78V75.28L284.75,63h5.17Z"/><path d="M303.33,93.33l-.87-4.81H297l-.87,4.81h-4.86L297.34,63h4.77l6.08,30.38Zm-5.51-9.59h3.82l-1.91-10.89Z"/><path d="M310.53,93.33V63h4.78V93.33Z"/><path d="M329.67,93.33l-.87-4.81h-5.47l-.86,4.81h-4.86L323.68,63h4.78l6.07,30.38Zm-5.51-9.59H328l-1.91-10.89Z"/><path d="M240.44,59.07h-8.22V24.42h7.47a8.23,8.23,0,0,1,5.69,1.94,6.66,6.66,0,0,1,1.89,2.77,9.81,9.81,0,0,1,.64,3.66V36a6.91,6.91,0,0,1-2,5.34q2.72,1.93,2.72,6.24v3.16a9.09,9.09,0,0,1-.64,3.62,6.8,6.8,0,0,1-1.88,2.77A8.14,8.14,0,0,1,240.44,59.07Zm-2.78-20h2a2.9,2.9,0,0,0,2-.59,3.38,3.38,0,0,0,.74-2.47V32.79a3.33,3.33,0,0,0-.69-2.38,3.09,3.09,0,0,0-2.08-.54h-2Zm0,14.56h2.78a3.06,3.06,0,0,0,2.07-.55,3.07,3.07,0,0,0,.7-2.33V47.59a3.31,3.31,0,0,0-.75-2.48,2.92,2.92,0,0,0-2-.59h-2.78Z"/><path d="M251.92,59.07V24.42h5.44V59.07Z"/><path d="M261.32,59.07V24.42h5.44V53.63h8.91v5.44Z"/><path d="M286.51,59.07H278.3V24.42h7.47a8.25,8.25,0,0,1,5.69,1.94,6.55,6.55,0,0,1,1.88,2.77,9.61,9.61,0,0,1,.64,3.66V36a6.91,6.91,0,0,1-2,5.34q2.73,1.93,2.73,6.24v3.16a9.08,9.08,0,0,1-.65,3.62,6.61,6.61,0,0,1-1.88,2.77A8.12,8.12,0,0,1,286.51,59.07Zm-2.77-20h2a2.91,2.91,0,0,0,2-.59,3.42,3.42,0,0,0,.74-2.47V32.79a3.33,3.33,0,0,0-.69-2.38,3.11,3.11,0,0,0-2.08-.54h-2Zm0,14.56h2.77a3.11,3.11,0,0,0,2.08-.55,3.12,3.12,0,0,0,.69-2.33V47.59a3.31,3.31,0,0,0-.74-2.48,3,3,0,0,0-2-.59h-2.77Z"/><path d="M310.22,59.07l-1-5.49H303l-1,5.49h-5.54l6.93-34.65h5.44l6.93,34.65Zm-6.29-10.94h4.36l-2.18-12.42Z"/><path d="M326,59.47a8.08,8.08,0,0,1-5.74-2A8.59,8.59,0,0,1,317.74,51V32.54a8.55,8.55,0,0,1,2.48-6.48,9.13,9.13,0,0,1,11.48,0,8.54,8.54,0,0,1,2.47,6.48V51a8.58,8.58,0,0,1-2.47,6.49A8.1,8.1,0,0,1,326,59.47Zm0-30a2.9,2.9,0,0,0-2,.6,3.27,3.27,0,0,0-.75,2.47V51a3.3,3.3,0,0,0,.75,2.48,3,3,0,0,0,2,.59,2.86,2.86,0,0,0,2-.59,3.25,3.25,0,0,0,.74-2.48V32.54a3.22,3.22,0,0,0-.74-2.47A2.81,2.81,0,0,0,326,29.47Z"/><path d="M240.44,59.07h-8.22V24.42h7.47a8.23,8.23,0,0,1,5.69,1.94,6.66,6.66,0,0,1,1.89,2.77,9.81,9.81,0,0,1,.64,3.66V36a6.91,6.91,0,0,1-2,5.34q2.72,1.93,2.72,6.24v3.16a9.09,9.09,0,0,1-.64,3.62,6.8,6.8,0,0,1-1.88,2.77A8.14,8.14,0,0,1,240.44,59.07Zm-2.78-20h2a2.9,2.9,0,0,0,2-.59,3.38,3.38,0,0,0,.74-2.47V32.79a3.33,3.33,0,0,0-.69-2.38,3.09,3.09,0,0,0-2.08-.54h-2Zm0,14.56h2.78a3.06,3.06,0,0,0,2.07-.55,3.07,3.07,0,0,0,.7-2.33V47.59a3.31,3.31,0,0,0-.75-2.48,2.92,2.92,0,0,0-2-.59h-2.78Z"/><path d="M251.92,59.07V24.42h5.44V59.07Z"/><path d="M261.32,59.07V24.42h5.44V53.63h8.91v5.44Z"/><path d="M286.51,59.07H278.3V24.42h7.47a8.25,8.25,0,0,1,5.69,1.94,6.55,6.55,0,0,1,1.88,2.77,9.61,9.61,0,0,1,.64,3.66V36a6.91,6.91,0,0,1-2,5.34q2.73,1.93,2.73,6.24v3.16a9.08,9.08,0,0,1-.65,3.62,6.61,6.61,0,0,1-1.88,2.77A8.12,8.12,0,0,1,286.51,59.07Zm-2.77-20h2a2.91,2.91,0,0,0,2-.59,3.42,3.42,0,0,0,.74-2.47V32.79a3.33,3.33,0,0,0-.69-2.38,3.11,3.11,0,0,0-2.08-.54h-2Zm0,14.56h2.77a3.11,3.11,0,0,0,2.08-.55,3.12,3.12,0,0,0,.69-2.33V47.59a3.31,3.31,0,0,0-.74-2.48,3,3,0,0,0-2-.59h-2.77Z"/><path d="M310.22,59.07l-1-5.49H303l-1,5.49h-5.54l6.93-34.65h5.44l6.93,34.65Zm-6.29-10.94h4.36l-2.18-12.42Z"/><path d="M326,59.47a8.08,8.08,0,0,1-5.74-2A8.59,8.59,0,0,1,317.74,51V32.54a8.55,8.55,0,0,1,2.48-6.48,9.13,9.13,0,0,1,11.48,0,8.54,8.54,0,0,1,2.47,6.48V51a8.58,8.58,0,0,1-2.47,6.49A8.1,8.1,0,0,1,326,59.47Zm0-30a2.9,2.9,0,0,0-2,.6,3.27,3.27,0,0,0-.75,2.47V51a3.3,3.3,0,0,0,.75,2.48,3,3,0,0,0,2,.59,2.86,2.86,0,0,0,2-.59,3.25,3.25,0,0,0,.74-2.48V32.54a3.22,3.22,0,0,0-.74-2.47A2.81,2.81,0,0,0,326,29.47Z"/><path class="cls-1" d="M193.73,47.46c2.81-3.06,6.07-4.28,10-3.15,5.23,1.52,7.81,6.91,6,12.41a22.35,22.35,0,0,1-5.07,8,54.59,54.59,0,0,1-9.93,8.33,1.4,1.4,0,0,1-1.72.13c-5.14-3.46-9.9-7.32-13.32-12.59a13.9,13.9,0,0,1-2.44-6.71,9.23,9.23,0,0,1,16-7.06C193.37,47,193.52,47.22,193.73,47.46ZM179.62,54c0,1.82,1.12,4,2.52,6A42.82,42.82,0,0,0,193.27,70.5a1.18,1.18,0,0,0,1,0,47.32,47.32,0,0,0,9.29-8.13,17.4,17.4,0,0,0,4.07-7.2c1.26-5.26-3.09-9.85-8.19-8.63a7,7,0,0,0-4.56,3.59c-.22.39-.75.87-1.11.85s-.85-.51-1.26-.83c-.12-.1-.16-.3-.25-.45a6.85,6.85,0,0,0-7.75-3.09C181.57,47.43,179.56,50.16,179.62,54Z"/><path class="cls-2" d="M31.77,62.32,28.08,49.71a2.74,2.74,0,0,0-2.64-2,2.84,2.84,0,0,0-3.11,2.76,3.82,3.82,0,0,0,.41,1.64l4.81,13.62c.94,2.7,1.82,3.58,4.22,3.58h.47c2.47,0,3-.88,4-3.52L41.1,52.11a4.7,4.7,0,0,0,.35-1.64c0-1.82-1.46-2.76-3.11-2.76a2.61,2.61,0,0,0-2.58,2L32,62.32Z"/><path class="cls-2" d="M91.51,37.5a3,3,0,1,1,5.92,0V66.08a3,3,0,1,1-5.92,0V37.5Z"/><path class="cls-2" d="M102.13,50.82a2.9,2.9,0,0,1,3-3.11,2.85,2.85,0,0,1,2.93,3.11V66.08a2.92,2.92,0,0,1-2.93,3.23,3,3,0,0,1-3-3.23V50.82Z"/><path class="cls-2" d="M132.05,66.14a3,3,0,1,1-6,0V56.4c0-2.35-1.29-3.93-3.76-3.93s-3.87,1.23-3.87,3.93v9.74a3,3,0,1,1-5.93,0V57.28c0-6.57,3.46-9.8,9.8-9.8s9.74,3.23,9.74,9.74v8.92Z"/><path class="cls-2" d="M44.62,50.65a3,3,0,0,1,3-3.17,2.93,2.93,0,0,1,2.93,3.17v9.8c0,2.34,1.29,3.87,3.75,3.87s3.94-1.17,3.94-3.87v-9.8a3,3,0,1,1,5.92,0v8.92c0,6.51-3.46,9.79-9.8,9.79s-9.74-3.28-9.74-9.79V50.65Z"/><path class="cls-2" d="M150.59,54.17c0-.71-1.35-1.7-3.81-1.7-3.7,0-5.11,2.34-5.11,6,0,4.22,1.41,5.81,4.41,5.81s4.51-2,4.51-6V54.17Zm2.88-5.28c1.64.7,2.7,1.7,2.7,3.58V70.19c0,6.33-3.35,10.5-10.8,10.5-3.64,0-8.39-1.94-8.39-4.46a2.39,2.39,0,0,1,2.17-2.46c1.88,0,3.29,1.64,6.69,1.64s4.75-1.7,4.75-4.52V67.55a7.62,7.62,0,0,1-5.45,1.81c-5.52,0-9.33-4-9.33-10.85,0-6.63,4.28-11,10.79-11a16.28,16.28,0,0,1,6.87,1.41Z"/><path class="cls-2" d="M81.94,56.51C81.77,53.7,80.47,52,77.72,52s-4,1.23-4.23,4.51Zm-8.45,3.94c.35,2.4,1.59,4,4.58,4s4.58-1.11,6-1.11a2.42,2.42,0,0,1,2.17,2.41c0,2.28-3.93,3.52-8.27,3.52-6.34,0-10.27-4.17-10.27-10.86s3.87-11.09,10.15-11.09c6.63,0,9.57,4.46,9.57,10.5,0,1.71-.71,2.59-2.41,2.59Z"/><path class="cls-3" d="M165.56,40a3.82,3.82,0,1,1-3.82-3.7,3.51,3.51,0,0,1,3.82,3.7Z"/><path class="cls-1" d="M356.72,117.36H.22V0h356.5Zm-355-1.5h353.5V1.51H1.72Z"/></g></g></svg>