<svg xmlns="http://www.w3.org/2000/svg" xmlns:xlink="http://www.w3.org/1999/xlink" viewBox="0 0 191.23 111.33"><defs><style>.cls-1{fill:none;}.cls-2{isolation:isolate;}.cls-3{fill:#fff;}.cls-4{clip-path:url(#clip-path);}.cls-5{fill:url(#linear-gradient);}.cls-6{clip-path:url(#clip-path-2);}.cls-7{fill:url(#linear-gradient-2);}.cls-8{clip-path:url(#clip-path-3);}.cls-9{fill:url(#linear-gradient-3);}.cls-10{opacity:0.28;mix-blend-mode:multiply;}.cls-11{clip-path:url(#clip-path-4);}.cls-12{clip-path:url(#clip-path-5);}.cls-13{fill:url(#linear-gradient-4);}</style><clipPath id="clip-path" transform="translate(13.5 3.8)"><path class="cls-1" d="M20,11.72,14.78,14.6s1.4,12.64-.32,19.77a121.32,121.32,0,0,1-5,14.42,51.93,51.93,0,0,0-2.16,6.15s1-2.15,5.37-11.81C17.42,32.67,25.34,8.88,25.34,8.88s-3.27,1.73-5.3,2.84"/></clipPath><linearGradient id="linear-gradient" x1="2771.24" y1="4519.81" x2="2773.86" y2="4519.81" gradientTransform="matrix(7.69, 0, 0, -7.69, -21289.23, 34779.22)" gradientUnits="userSpaceOnUse"><stop offset="0" stop-color="#b2b2b2"/><stop offset="1" stop-color="#ededed"/></linearGradient><clipPath id="clip-path-2" transform="translate(13.5 3.8)"><path class="cls-1" d="M55.26,0c-.07,0-5.82.83-9.48,1.42a82,82,0,0,0-9.66,2.1C39.8,8,44.61,18.18,41.66,29.11,36.43,48.52,50.31,47.44,50.31,76c0,8.42-8.77,27.64-8.87,27.74s9.67-2.14,21.83-9.37a10,10,0,0,0,4.82-8.27,14.31,14.31,0,0,0-1-5.38c-3.21-8.58-18.37-17.09-17.24-27.95,1.42-13.62,13-16.73,12.74-30.88C62.35,7.42,55.29,0,55.26,0Z"/></clipPath><linearGradient id="linear-gradient-2" x1="2467.44" y1="3829.75" x2="2470.06" y2="3829.75" gradientTransform="matrix(0, 25.84, 25.84, 0, -98889.84, -63736.93)" gradientUnits="userSpaceOnUse"><stop offset="0" stop-color="#ededed"/><stop offset="1" stop-color="#c6c6c6"/></linearGradient><clipPath id="clip-path-3" transform="translate(13.5 3.8)"><path class="cls-1" d="M62.59,21.88C62.82,36,51.27,39.14,49.85,52.76c-1.13,10.86,14,19.37,17.24,27.95a14.31,14.31,0,0,1,1,5.38c.88-16.67-13.81-21.61-14-39.66C54,38.19,62.76,34.72,65.53,25,70,9.55,55.47.14,55.26,0c0,0,7.09,7.42,7.33,21.88"/></clipPath><linearGradient id="linear-gradient-3" x1="2165.26" y1="4421.54" x2="2167.88" y2="4421.54" gradientTransform="matrix(7.01, 0, 0, -7.01, -15112.16, 31035.64)" gradientUnits="userSpaceOnUse"><stop offset="0" stop-color="#f6f6f6"/><stop offset="1" stop-color="#878787"/></linearGradient><clipPath id="clip-path-4" transform="translate(13.5 3.8)"><rect class="cls-1" x="0.02" y="79.16" width="64.99" height="24.53"/></clipPath><clipPath id="clip-path-5" transform="translate(13.5 3.8)"><path class="cls-1" d="M61.93,90.42c-10.34-5.18-35.87-11.77-39-11.23-1.94.34-19,8.47-22.85,11.75A139,139,0,0,0,21,99c7.63,2.07,19.56,4.57,20.31,4.65h0l.06,0a86.69,86.69,0,0,0,21.73-9.33A9.16,9.16,0,0,0,65,92.85c.09-.95-.71-1.24-3.08-2.43"/></clipPath><linearGradient id="linear-gradient-4" x1="2486.1" y1="4070.88" x2="2488.71" y2="4070.88" gradientTransform="matrix(24.84, 0, 0, -24.84, -61745.2, 101222.25)" gradientUnits="userSpaceOnUse"><stop offset="0" stop-color="#fff"/><stop offset="1" stop-color="#9d9d9c"/></linearGradient></defs><g class="cls-2"><g id="Capa_2" data-name="Capa 2"><g id="Layer_1" data-name="Layer 1"><path class="cls-3" d="M88.74,65.07a.47.47,0,0,1-.47-.48V45.36a.46.46,0,0,1,.47-.47H94c4,0,5.88,1.92,5.88,5a4.36,4.36,0,0,1-3.26,4.41c2.18.3,4.21,1.86,4.21,5.28s-2,5.52-5.82,5.52ZM89.22,54H94c3.22,0,4.92-1.5,4.92-4.14S97.37,45.72,94,45.72H89.22Zm0,10.23H95c3.29,0,4.87-1.77,4.87-4.68,0-3.18-1.73-4.71-4.93-4.71H89.22Z" transform="translate(13.5 3.8)"/><path class="cls-3" d="M104.47,64.58a.48.48,0,0,1-1,0V45.33a.48.48,0,0,1,1,0Z" transform="translate(13.5 3.8)"/><path class="cls-3" d="M107.5,65a.39.39,0,0,1-.38-.41.42.42,0,0,1,.09-.27l12.38-18.64h-11.4a.41.41,0,0,1-.42-.41.41.41,0,0,1,.42-.43h12.12a.41.41,0,0,1,.42.43.45.45,0,0,1-.09.26L108.31,64.21h12.48a.42.42,0,0,1,.42.42.41.41,0,0,1-.42.41Z" transform="translate(13.5 3.8)"/><path class="cls-3" d="M135.25,45a.51.51,0,0,1,.39-.17.48.48,0,0,1,.51.5.49.49,0,0,1-.15.35l-6.93,7.65L137,64.28a.51.51,0,0,1,.09.3.49.49,0,0,1-.5.46.5.5,0,0,1-.42-.23l-7.73-10.72L125,57.87v6.71a.48.48,0,0,1-1,0V45.33a.48.48,0,0,1,1,0V56.55Z" transform="translate(13.5 3.8)"/><path class="cls-3" d="M141.84,58.54l-2.47,6.18a.51.51,0,0,1-.48.32.46.46,0,0,1-.48-.46.71.71,0,0,1,.06-.24l7.73-19.16a.45.45,0,0,1,.44-.32.49.49,0,0,1,.48.32l7.7,19.16a.71.71,0,0,1,.06.24.47.47,0,0,1-.51.46.5.5,0,0,1-.47-.35l-2.45-6.15Zm4.8-12.22-4.5,11.37h9Z" transform="translate(13.5 3.8)"/><path class="cls-3" d="M158.53,64.58a.48.48,0,0,1-1,0V45.33a.48.48,0,0,1,1,0Z" transform="translate(13.5 3.8)"/><path class="cls-3" d="M164.69,58.54l-2.48,6.18a.49.49,0,0,1-.47.32.46.46,0,0,1-.48-.46.71.71,0,0,1,.06-.24l7.73-19.16a.45.45,0,0,1,.45-.32.49.49,0,0,1,.47.32l7.7,19.16a.71.71,0,0,1,.06.24.47.47,0,0,1-.51.46.52.52,0,0,1-.48-.35l-2.44-6.15Zm4.81-12.22L165,57.69h9Z" transform="translate(13.5 3.8)"/><path class="cls-3" d="M99.3,29A4.39,4.39,0,0,0,101.49,25c0-2.74-1.6-5.19-6.07-5.19H90.08a1.73,1.73,0,0,0-1.71,1.73v16.6a1.72,1.72,0,0,0,1.71,1.73H96c4.27,0,6.43-2.38,6.43-6,0-2.32-.86-3.93-3.08-4.8m-7.5-6.14h3.62a2.31,2.31,0,0,1,2.64,2.54A2.35,2.35,0,0,1,95.42,28H91.8ZM96,36.72H91.8V30.88H96a2.63,2.63,0,0,1,2.93,2.92c0,1.79-.82,2.92-2.93,2.92" transform="translate(13.5 3.8)"/><path class="cls-3" d="M106.91,19.52a1.73,1.73,0,0,0-1.72,1.73V38.33a1.72,1.72,0,1,0,3.44,0V21.25a1.73,1.73,0,0,0-1.72-1.73" transform="translate(13.5 3.8)"/><path class="cls-3" d="M122.65,36.6h-7V21.21a1.72,1.72,0,1,0-3.43,0V38.15a1.63,1.63,0,0,0,1.69,1.67h8.77a1.61,1.61,0,1,0,0-3.22" transform="translate(13.5 3.8)"/><path class="cls-3" d="M136.48,29a4.38,4.38,0,0,0,2.2-4.05c0-2.74-1.61-5.19-6.08-5.19h-5.33a1.73,1.73,0,0,0-1.72,1.73v16.6a1.72,1.72,0,0,0,1.72,1.73h5.86c4.27,0,6.44-2.38,6.44-6a4.59,4.59,0,0,0-3.09-4.8M129,22.86h3.61a2.3,2.3,0,0,1,2.64,2.54A2.34,2.34,0,0,1,132.6,28H129Zm4.14,13.86H129V30.88h4.14a2.64,2.64,0,0,1,2.94,2.92c0,1.79-.83,2.92-2.94,2.92" transform="translate(13.5 3.8)"/><path class="cls-3" d="M151.12,20.6a1.69,1.69,0,0,0-3.14,0l-7,17.14a1.62,1.62,0,0,0-.12.62,1.72,1.72,0,0,0,1.69,1.7,1.76,1.76,0,0,0,1.6-1.13l1.8-4.32h7.17l1.81,4.32a1.76,1.76,0,0,0,1.6,1.13,1.72,1.72,0,0,0,1.69-1.7,1.62,1.62,0,0,0-.12-.62Zm-4,10.85,2.43-6.26L152,31.45Z" transform="translate(13.5 3.8)"/><path class="cls-3" d="M168.3,19.35c-6,0-9.39,3.4-9.39,10.46s3.41,10.43,9.39,10.43,9.4-3.46,9.4-10.43-3.41-10.46-9.4-10.46m0,17.79c-3.91,0-5.83-2.42-5.83-7.33s1.92-7.36,5.83-7.36,5.84,2.41,5.84,7.36-1.93,7.33-5.84,7.33" transform="translate(13.5 3.8)"/><path class="cls-3" d="M97.25,85.57c0,3.69-1.71,5.41-4.59,5.41a4,4,0,0,1-4.39-4.42V75.43a.72.72,0,1,1,1.43,0v6.22a3.8,3.8,0,0,1,3-1.47c2.88,0,4.5,1.71,4.5,5.39m-7.55,1a2.77,2.77,0,0,0,3,3.12c2.06,0,3.15-1.3,3.15-4.11s-1.12-4.08-3.15-4.08a3.39,3.39,0,0,0-3,2Z" transform="translate(13.5 3.8)"/><path class="cls-3" d="M124.92,85.57c0,3.69-1.7,5.41-4.59,5.41a4,4,0,0,1-4.39-4.42V75.43a.72.72,0,1,1,1.43,0v6.22a3.8,3.8,0,0,1,3-1.47c2.89,0,4.5,1.71,4.5,5.39m-7.55,1a2.77,2.77,0,0,0,3,3.12c2.06,0,3.15-1.3,3.15-4.11s-1.11-4.08-3.15-4.08a3.39,3.39,0,0,0-3,2Z" transform="translate(13.5 3.8)"/><path class="cls-3" d="M103.42,80.19c3.59,0,4.28,2.85,4.28,4.37,0,.65,0,1.44-.9,1.44h-6.53c0,2.22,1.27,3.66,3.38,3.66a4.14,4.14,0,0,0,2.69-1,.56.56,0,0,1,.4-.14.65.65,0,0,1,.65.65.67.67,0,0,1-.25.52A5,5,0,0,1,103.65,91c-3,0-4.84-1.64-4.84-5.41,0-3.45,1.71-5.38,4.61-5.38m0,1.3c-1.94,0-3,1.25-3.15,3.25h6c0-1.61-.56-3.25-2.87-3.25" transform="translate(13.5 3.8)"/><path class="cls-3" d="M129,82.68a.71.71,0,0,1-.58.31.65.65,0,0,1-.65-.65.66.66,0,0,1,.11-.38,4.17,4.17,0,0,1,3.72-1.78c2.59,0,4,1.53,4,3.82v6.18a.7.7,0,0,1-.7.69.69.69,0,0,1-.69-.69v-.81A3.55,3.55,0,0,1,131,91c-2.38,0-3.88-1.14-3.88-3.21s1.5-3.16,3.92-3.16h3.16V84a2.38,2.38,0,0,0-2.64-2.47,3.08,3.08,0,0,0-2.6,1.15m5.24,4.13v-.94H131c-1.45,0-2.46.6-2.46,1.9s.8,1.91,2.55,1.91a2.85,2.85,0,0,0,3.07-2.87" transform="translate(13.5 3.8)"/><path class="cls-3" d="M139.45,82.93c0,2.35,5.89,1.48,5.89,5.07,0,2-1.68,3-3.81,3a5,5,0,0,1-3.82-1.61.64.64,0,0,1-.16-.43.65.65,0,0,1,.65-.65.68.68,0,0,1,.49.22,3.76,3.76,0,0,0,2.84,1.1c1.28,0,2.38-.42,2.38-1.59,0-2.31-5.89-1.39-5.89-5.07,0-1.87,1.52-2.72,3.42-2.72a4.08,4.08,0,0,1,3.41,1.44.69.69,0,0,1,.15.42.65.65,0,0,1-.64.65.64.64,0,0,1-.48-.2,3.17,3.17,0,0,0-2.44-.94c-1,0-2,.31-2,1.35" transform="translate(13.5 3.8)"/><path class="cls-3" d="M147.09,85.6c0-3.69,1.7-5.41,4.58-5.41a4,4,0,0,1,4.39,4.42v9.88a.71.71,0,0,1-.71.72.72.72,0,0,1-.72-.72v-5a3.77,3.77,0,0,1-3,1.46c-2.89,0-4.5-1.7-4.5-5.38m7.54-1a2.77,2.77,0,0,0-3-3.12c-2,0-3.15,1.3-3.15,4.11s1.12,4.08,3.15,4.08a3.39,3.39,0,0,0,3-2Z" transform="translate(13.5 3.8)"/><path class="cls-3" d="M159.94,81V86.9c0,1.46.47,2.72,2.73,2.72s2.73-1.26,2.73-2.72V81a.73.73,0,0,1,.74-.72.7.7,0,0,1,.69.72V86.9c0,2.13-.69,4.08-4.16,4.08s-4.17-2-4.17-4.08V81a.72.72,0,0,1,.72-.72.73.73,0,0,1,.72.72" transform="translate(13.5 3.8)"/><path class="cls-3" d="M173.46,80.19a4.05,4.05,0,0,1,4.28,4.37c0,.65,0,1.44-.9,1.44H170.3c0,2.22,1.28,3.66,3.38,3.66a4.14,4.14,0,0,0,2.69-1,.58.58,0,0,1,.4-.14.65.65,0,0,1,.65.65.69.69,0,0,1-.24.52,5,5,0,0,1-3.5,1.25c-3,0-4.83-1.64-4.83-5.41,0-3.45,1.7-5.38,4.61-5.38m0,1.3c-2,0-3,1.25-3.16,3.25h6c0-1.61-.55-3.25-2.86-3.25" transform="translate(13.5 3.8)"/><g class="cls-4"><rect class="cls-5" x="-8.01" y="12" width="48.61" height="39.82" transform="translate(-5.9 32.53) rotate(-57.85)"/></g><path class="cls-3" d="M41.65,29.13C44.6,18.21,39.8,8,36.13,3.52l-.2.07c-1.92.65-10.59,5.3-10.59,5.3s-7.92,23.79-12.7,34.24C8.22,52.79,7.25,54.94,7.25,54.94v0A168.34,168.34,0,0,0,0,90.93a140.07,140.07,0,0,0,21.13,8.14c7.62,2.08,19.57,4.51,20.31,4.66.32-.61,8.86-19.42,8.86-27.72,0-28.55-13.88-27.47-8.65-46.88" transform="translate(13.5 3.8)"/><g class="cls-6"><rect class="cls-7" x="30.03" y="-1.54" width="44.19" height="106.81" transform="translate(7.66 10.41) rotate(-6.87)"/></g><g class="cls-8"><rect class="cls-9" x="62.22" y="3.8" width="21.25" height="86.09"/></g><g class="cls-10"><g class="cls-11"><g class="cls-12"><rect class="cls-13" x="13.52" y="82.45" width="65.07" height="25.05"/></g></g></g></g></g></g></svg>