<svg xmlns="http://www.w3.org/2000/svg" viewBox="0 0 160 160.13"><defs><style>.cls-1{fill:#fff;}</style></defs><g id="Capa_2" data-name="Capa 2"><g id="ilustracion"><g id="yMHEQd.tif"><path class="cls-1" d="M0,85.31V74.7c0-.26.11-.53.13-.79.17-1.68.27-3.37.51-5A80.32,80.32,0,0,1,46,7.58C60.13.8,75.07-1.2,90.55.66a74.24,74.24,0,0,1,21.71,6.2,79.5,79.5,0,0,1,40.2,39.39,76.27,76.27,0,0,1,7.07,25.31c.17,1.7.31,3.4.47,5.1v6.86c-.05.26-.11.52-.14.79-.4,3.37-.6,6.78-1.23,10.11a78.8,78.8,0,0,1-20.75,40.67,79.16,79.16,0,0,1-48.76,24.47,76.51,76.51,0,0,1-25.07-1.08A79.41,79.41,0,0,1,31.6,143.74,78.23,78.23,0,0,1,6.27,111.16,79.79,79.79,0,0,1,.46,89.84C.28,88.34.15,86.82,0,85.31Zm147.44-5.2a67.51,67.51,0,1,0-68.24,67.4A67.49,67.49,0,0,0,147.44,80.11Z"/><path class="cls-1" d="M57.48,80q0-13.14,0-26.29a34.94,34.94,0,0,1,.27-4.8,3.5,3.5,0,0,1,5.41-2.73c2.9,1.53,5.77,3.15,8.6,4.82Q93.1,63.58,114.4,76.17c.35.21.69.43,1,.65a3.57,3.57,0,0,1,1.8,4.24,3.61,3.61,0,0,1-1.91,2.24c-2.72,1.7-5.43,3.41-8.2,5Q87,100,67,111.7c-1.34.78-2.71,1.51-4.09,2.21a3.37,3.37,0,0,1-5-2.48,32.66,32.66,0,0,1-.33-5C57.46,97.6,57.48,88.81,57.48,80Z"/></g></g></g></svg>